<svg width="232" height="48" viewBox="0 0 232 48" xmlns="http://www.w3.org/2000/svg" role="img" aria-label="logister.org">
  <defs>
    <linearGradient id="panel" x1="0" y1="1" x2="1" y2="0">
      <stop offset="0%" stop-color="#1b2e9b"/>
      <stop offset="55%" stop-color="#2851ff"/>
      <stop offset="100%" stop-color="#aa1de0"/>
    </linearGradient>
    <linearGradient id="wingA" x1="1" y1="0" x2="0" y2="1">
      <stop offset="0%" stop-color="#ff6d1f"/>
      <stop offset="100%" stop-color="#ef1a22"/>
    </linearGradient>
    <linearGradient id="bar" x1="0" y1="1" x2="1" y2="0">
      <stop offset="0%" stop-color="#15b8d4"/>
      <stop offset="100%" stop-color="#80ffe4"/>
    </linearGradient>
  </defs>

  <rect x="1" y="1" width="46" height="46" rx="12" fill="url(#panel)" stroke="#5e72ff" stroke-opacity="0.5"/>
  <ellipse cx="16" cy="24" rx="7" ry="10" fill="#020a2d"/>
  <path d="M8 23c5-4 11-4 16 0-2 4-4 7-8 9-4-2-6-5-8-9z" fill="url(#wingA)"/>
  <rect x="27" y="24" width="6" height="12" rx="1" fill="#1985ff"/>
  <rect x="35" y="18" width="6" height="18" rx="1" fill="url(#bar)"/>
  <path d="M24 18l6-5 5 1 6-8" fill="none" stroke="#ffd038" stroke-width="2.5" stroke-linecap="round" stroke-linejoin="round"/>

  <text x="58" y="31" fill="#1e293b" font-size="23" font-family="Satoshi, Avenir Next, Segoe UI, sans-serif" font-weight="700" letter-spacing="0.2">logister.org</text>
</svg>
