<svg xmlns="http://www.w3.org/2000/svg" aria-hidden="true">
  <!-- Generated from @iconify-json/streamline-freehand. Streamline Freehand free icons are licensed under CC BY 4.0. -->
  <symbol id="streamline-plus" viewBox="0 0 24 24">
    <path fill="currentColor" fill-rule="evenodd" d="M23.89 12.522c-.06-.67.07-1.57 0-2.35a3.2 3.2 0 0 0-.28-1.15a1.25 1.25 0 0 0-.61-.58a5.3 5.3 0 0 0-1.16-.31a11 11 0 0 0-1.92-.18a22 22 0 0 0-2.83.2c-2.13.25-1.39.56-1.39-1.87l-.13-3.07q0-.73-.12-1.45a1.7 1.7 0 0 0-.62-1a1.9 1.9 0 0 0-.75-.35c-.34-.09-.71-.12-1-.18a5 5 0 0 0-.8-.07h-.79a7 7 0 0 0-2 .53a3.1 3.1 0 0 0-1.2.81a1.1 1.1 0 0 0-.24.52a5.5 5.5 0 0 0 0 1l.24 4.8a.31.31 0 0 0 .61 0l-.17-4.8v-.77a.5.5 0 0 1 .1-.3a2.4 2.4 0 0 1 .94-.58a5.7 5.7 0 0 1 2.45-.44a5.8 5.8 0 0 1 2.09.47a1 1 0 0 1 .32.56q.08.657.07 1.32l.08 3q-.115.996-.13 2c-.01.282.075.56.24.79c.186.163.423.258.67.27a9.5 9.5 0 0 0 1.63-.17c.81-.15 1.53-.15 2.25-.15a10.6 10.6 0 0 1 2.19.2c1.33.25 1.15.9 1.16 1.05c.05.8-.09 1.71 0 2.38c0 .41.1.92.1 1.4a2.2 2.2 0 0 1-.12.75c0 .13-.22.14-.36.17c-.32.08-.66.1-.91.15c-.49.08-1 .15-1.56.19c-.82.06-1.66.08-2.41.08c-.31 0-.79-.09-1.21-.11c-.243-.01-.487.02-.72.09a.71.71 0 0 0-.49.56a3.7 3.7 0 0 0 0 .86c0 .73.07 1.47.08 2.21v.88c-.026.652-.11 1.302-.25 1.94a2 2 0 0 1-.45.95c-.08.08-.24 0-.38 0s-.41-.05-.56-.06a19 19 0 0 0-2.28 0q-.45.003-.9-.05c-.59-.07-.87-.62-1.07-1.26a19.3 19.3 0 0 1-.46-3.41q.043-.686 0-1.37a1.2 1.2 0 0 0-.49-.78a2.2 2.2 0 0 0-.75-.29a10 10 0 0 0-1.6-.21c-.61-.06-1.25-.15-1.88-.25s-1.27-.24-1.87-.38l-1.36-.29a6 6 0 0 1-.05-.6c0-.56.09-1.19.09-1.42a9 9 0 0 1 .07-1.76a1.56 1.56 0 0 1 .37-.9a1.1 1.1 0 0 1 .47-.26c.34-.09.72-.1 1.06-.16a14.6 14.6 0 0 1 2.26-.19c.76.016 1.52.086 2.27.21a.345.345 0 0 0 .11-.68a15 15 0 0 0-2.38-.24c-.8-.018-1.6.039-2.39.17q-.575.045-1.14.16a1.7 1.7 0 0 0-.82.45a2.4 2.4 0 0 0-.6 1.3a10.7 10.7 0 0 0-.1 1.9a18 18 0 0 0-.11 1.92c.006.255.097.502.26.7c.132.12.29.208.46.26c.41.13 1.06.21 1.33.28c.61.15 1.26.3 1.92.42s1.31.22 1.95.28c.32 0 .79.07 1.22.15c.215.025.422.093.61.2c.09.06.08.19.1.31v1.15a14 14 0 0 0 .68 4.22a2.15 2.15 0 0 0 1.7 1.4q.498.067 1 .07a21 21 0 0 1 2.18 0q.561.1 1.13.07a1.24 1.24 0 0 0 .72-.33a3.16 3.16 0 0 0 .74-1.43c.164-.7.26-1.413.29-2.13q.03-.5 0-1c0-.73-.07-1.47-.07-2.19v-.35c.42 0 .92.11 1.24.11c.78 0 1.65 0 2.5-.09c.58-.05 1.15-.11 1.68-.21a5.3 5.3 0 0 0 1.44-.33c.31-.135.556-.381.69-.69a3.3 3.3 0 0 0 .23-1.17c0-.51-.07-1.06-.11-1.5" clip-rule="evenodd"/>
  </symbol>
  <symbol id="streamline-dashboard" viewBox="0 0 24 24">
    <path fill="currentColor" d="M6.582 5.433c0-.21.07-.58.06-1a9 9 0 0 0-.08-1c-.07-.44.06-.8-.15-1a.77.77 0 0 0-.69.07c-.22.22-.19.69-.23 1.25a8 8 0 0 0 0 .83v.71a1.13 1.13 0 0 0 .14.58a.56.56 0 0 0 .83-.05a.9.9 0 0 0 .12-.39"/><path fill="currentColor" d="M24 10.422c-.06-1.6-.18-3.2-.31-4.81a16 16 0 0 0-.2-2.239a2.5 2.5 0 0 0-.48-1a1.7 1.7 0 0 0-.5-.4a6.4 6.4 0 0 0-1.13-.36a15 15 0 0 0-1.61-.33c-.8-.11-1.61-.18-2.42-.23a46 46 0 0 0-4.899-.1c-2.34.07-2.06.12-9.529.79q-.64.046-1.27.17a1.8 1.8 0 0 0-.65.47a2.7 2.7 0 0 0-.43.64a6 6 0 0 0-.46 1.69a22 22 0 0 0-.11 2.51v4c.07 2 .18 3.999.26 5.939c0 1-.09 2.26.06 3.38a4.8 4.8 0 0 0 .5 1.48c.14.271.37.487.65.61c.32.128.657.212 1 .25c.5.07 1 .11 1.5.14c.73 0 1.47 0 2.19.05c1.67 0 3.33 0 5-.06c2.469-.1 4.939-.28 7.419-.44a25 25 0 0 0 3.07-.11a2.7 2.7 0 0 0 1.47-.69a2.6 2.6 0 0 0 .609-1.19a9 9 0 0 0 .18-1.69l.09-5.24zM.852 4.802a4.9 4.9 0 0 1 .38-1.479a2 2 0 0 1 .29-.47a1.3 1.3 0 0 1 .41-.31s9.87-.83 10.54-.85a48 48 0 0 1 4.789.14c.78.06 1.57.14 2.34.26c.51.09 1 .19 1.51.33q.428.1.84.26a.77.77 0 0 1 .33.22a2 2 0 0 1 .33 1c.1.64.07 1.34.11 1.83v.06h-.07c0-.07-.38 0-.5 0h-1l-3.1.1c-.87 0-2.24.05-3.85.09c-1 0-2.12.06-3.24.1c0 0-7.48.44-8.299.49l-1.86.06q-.027-.917.05-1.83m22.088 8.82l-.21 5.26c.003.493-.048.986-.15 1.47a1.46 1.46 0 0 1-.34.68a2 2 0 0 1-1.24.39c-.92.09-2 0-2.56.05c-2.47.15-4.929.33-7.389.43c-1.63.12-3.26.12-4.91.12h-2.16c-.47 0-.939-.05-1.399-.11a3 3 0 0 1-.58-.17a.29.29 0 0 1-.24-.16a4.2 4.2 0 0 1-.41-1.64c-.08-1 0-2-.06-2.85c-.11-2-.26-4-.37-5.92a74 74 0 0 1-.12-3.92h9.58c1.34 0 2.659-.09 3.859-.15c1.61-.09 3-.2 3.86-.28l3.06-.27h1.54c.08 1.35.16 2.69.19 4c.11.96.11 2.01.05 3.07"/><path fill="currentColor" d="M9.821 4.663a1.6 1.6 0 0 0 .33 1.06c.15.15.58.18.7 0c.083-.306.114-.624.09-.94q.03-.564 0-1.13c-.07-.63.11-1-.32-1.29a.72.72 0 0 0-.67.07c-.3.32-.12.54-.14 1.09q-.032.57.01 1.14m6.77 7.009a.78.78 0 0 0-.69 0a5.8 5.8 0 0 0-1.18.75a13 13 0 0 0-1.87 1.79a8.9 8.9 0 0 0-1.42 2.24a5.2 5.2 0 0 0-.43 1.11a1.08 1.08 0 0 0 .21.81c.44.59 1.25.63 2.14.07a8.73 8.73 0 0 0 3.44-5.67a2.5 2.5 0 0 0 0-.75a.5.5 0 0 0-.2-.35m-2.86 5.41a3.7 3.7 0 0 1-1.24.72c-.17 0-.32.08-.39 0l.38-.88a8 8 0 0 1 .95-1.58c.59-.773 1.26-1.48 2-2.11c0-.05.32-.16.56-.29a5.63 5.63 0 0 1-2.26 4.14m-1.59-5.369a.34.34 0 0 0 .31-.37c0-.32.11-.62.15-1q.015-.2 0-.4q.015-.186 0-.37a5 5 0 0 0-.14-.54v-.19c-.2-.24-.35-.31-.48-.23s-.15 0-.19.12a5.4 5.4 0 0 0-.26.87q-.03.29 0 .58q.087.597.28 1.17a.34.34 0 0 0 .33.36m-4.649.949c-.23-.14-.49-.23-.73-.35a2.4 2.4 0 0 0-1-.31c-.29-.09-.57.18-.16.62c.16.17.62.57.69.63q.337.229.7.41c.37.17.76.24 1.14.39a.34.34 0 0 0 .47-.1a.36.36 0 0 0-.11-.48a7 7 0 0 0-1-.81m10.978 1.71c.14.07.09.1 1-.45c.08-.05.16-.09.24-.15q.166-.134.31-.29c.3-.33.51-.68.65-.84a.33.33 0 0 0 .09-.47a.34.34 0 0 0-.48-.09a4.8 4.8 0 0 0-.88.46a2.4 2.4 0 0 0-.48.41a3.7 3.7 0 0 0-.53.86c-.05.1-.09.15-.09.19c.01.22.06.34.17.37m2.85 3.65a2.4 2.4 0 0 0-.49-.18a4.6 4.6 0 0 0-.82-.16a1.8 1.8 0 0 0-.4 0l-.39.11c-.247.03-.488.105-.71.22c-.09 0-.1.1-.13.13s-.06.35.3.46c.13 0 .48.1.56.12s.41.08.63.09q.18.023.36 0a3.7 3.7 0 0 1 1-.1a.35.35 0 0 0 .35-.34c0-.09-.08-.22-.26-.35m-14.388 0a2.2 2.2 0 0 0-.71-.22l-.39-.11a1.8 1.8 0 0 0-.4 0a4.6 4.6 0 0 0-.82.16q-.255.062-.49.18c-.18.12-.26.25-.24.35c0 .31.1.3 1.33.44q.18.022.36 0c.21 0 .41-.06.62-.09s.44-.08.57-.12c.35-.11.36-.37.3-.46s-.06-.13-.13-.13"/>
  </symbol>
  <symbol id="streamline-projects" viewBox="0 0 24 24">
    <path fill="currentColor" d="m3.171 7.083l3.732.12h5.122c1.71 0 3.411-.07 5.122-.1l3.302-.07h1.7a.35.35 0 0 0 .36-.33a.34.34 0 0 0-.33-.35l-1.73-.12l-3.302-.11c-1.71 0-3.421-.1-5.122-.1c-1.7 0-3.421.06-5.132.11l-3.712.15a7.4 7.4 0 0 0-1.19.06c-.31 0-.47.68 0 .69z"/><path fill="currentColor" d="M23.85 5.943c.044-.788.021-1.578-.07-2.361a2.35 2.35 0 0 0-.49-1.11A1.55 1.55 0 0 0 22.52 2a6 6 0 0 0-1.001-.16c-.53-.05-1.06-.08-1.59-.11h-2.362c-2.33 0-4.652-.11-7.003-.13c-1.56 0-3.12 0-4.672.07l-3 .22c-.33 0-.711 0-1.071.07a6 6 0 0 0-.78.2a.64.64 0 0 0-.47.57c-.04.63-.09 1.27-.13 1.991C.35 6.302.3 7.883.21 9.474c-.06.95-.171 1.89-.211 2.841v1.25c0 .58.14 5.003.28 6.543q.035.599.21 1.17a.6.6 0 0 0 .21.301c.163.123.351.208.55.25q.498.08 1 .11l1.261.07l1.881.13l2.951.07c1.201 0 2.432.14 3.652.19h1.62c1.591 0 5.193-.12 7.394-.3a11 11 0 0 0 1.77-.25a.9.9 0 0 0 .45-.3a2.2 2.2 0 0 0 .35-.84q.105-.817.09-1.641L24 12.795zm-1.33 13.115v1.3a1.6 1.6 0 0 1-.12.46c-.12 0-.34.07-.56.09c-.851.11-2.212.19-3.622.26c-1.761.08-3.592.13-4.602.17h-1c-1.401 0-2.832-.16-4.212-.15H5.482l-1.84-.09l-1.251-.09h-.81l-.23-.05c0-.06-.06-.13-.08-.21a18 18 0 0 1-.19-1.83c-.09-1.49-.25-4.912-.28-5.402s0-1.06 0-1.581c0-.81.11-1.61.14-2.431c.03-.82.12-4.162.15-4.752s.06-1.33.11-2c.05 0 .52-.15.73-.17s.72 0 1 0L5.882 2.4h4.632c2.321 0 4.652.17 7.003.23c.77 0 1.55 0 2.331.08c.51 0 1 .07 1.53.13q.365.025.721.1a.76.76 0 0 1 .41.2c.189.279.293.605.3.94c.06.661 0 1.391 0 1.902l.07 6.362v.84z"/><path fill="currentColor" d="M3.531 3.702a.88.88 0 0 0-.77 1.57c.76.42 2.23-.74.77-1.57m3.161.07c-.91-.43-1.7.83-.83 1.37a1.31 1.31 0 0 0 1.28-.29c.21-.24.19-.75-.45-1.08m1.841 1.23a1 1 0 0 0 1.56-.4a.89.89 0 0 0-1-1a.79.79 0 0 0-.56 1.4"/><path fill="currentColor" fill-rule="evenodd" d="M8.163 11.605c-.35-2.001-.46-2.001-2.11-1.9c-1.481.08-1.731-.141-2.001 1.14c-.06.32-.08.85-.14 1.31a1.3 1.3 0 0 0 .13.83c.45.78 1.62.76 2.42.78c1.471.04 1.821-.76 1.701-2.16m-1.08.71c0 .3 0 .24-.6.32c-2.211.09-1.701.12-1.601-2.2c.698.107 1.404.16 2.11.16c.115.565.146 1.145.09 1.72m.751 3.512c-.31-.66-1.13-.5-1.78-.46c-1.491.07-1.731-.14-2.001 1.13c-.06.32-.08.86-.14 1.32a1.3 1.3 0 0 0 .13.83c.45.771 1.62.761 2.42.781c2.072.05 1.921-1.65 1.371-3.601m-.75 2.18c0 .29 0 .23-.6.32c-2.201.08-1.711.12-1.601-2.2q1.051.132 2.11.13a5.8 5.8 0 0 1 .091 1.75m7.283-6.402c-.35-2.001-.46-2.001-2.11-1.9c-1.482.08-1.732-.141-2.002 1.14c-.06.32-.09.85-.15 1.31a1.3 1.3 0 0 0 .14.83c.44.78 1.61.76 2.421.78c1.47.04 1.811-.76 1.701-2.16m-1.09.71c0 .3 0 .24-.59.32c-2.212.09-1.711.12-1.601-2.2q1.049.16 2.11.16c.107.566.134 1.146.08 1.72m.721 3.512c-.31-.66-1.13-.5-1.77-.46c-1.492.07-1.732-.14-2.002 1.13c-.06.32-.09.86-.15 1.32a1.3 1.3 0 0 0 .14.83c.44.771 1.61.761 2.421.781c2.101.05 1.941-1.65 1.36-3.601m-.72 2.18c0 .29 0 .23-.59.32c-2.212.08-1.711.12-1.601-2.2q1.05.147 2.11.16c.107.567.134 1.146.08 1.72m7.295-6.402c-.36-2.001-.47-2.001-2.121-1.9c-1.48.08-1.731-.141-2.001 1.14c-.07.32-.09.85-.15 1.31a1.3 1.3 0 0 0 .13.83c.45.78 1.62.76 2.42.78c1.481.04 1.832-.76 1.722-2.16m-1.09.71c-.05.3 0 .24-.601.32c-2.211.09-1.7.12-1.6-2.2q1.048.16 2.11.16c.114.565.145 1.145.09 1.72m.75 3.512c-.31-.66-1.13-.5-1.78-.46c-1.49.07-1.731-.14-2.001 1.13c-.07.32-.09.86-.15 1.32a1.3 1.3 0 0 0 .13.83c.45.771 1.62.761 2.42.781c2.082.05 1.932-1.65 1.381-3.601m-.75 2.18c-.05.29 0 .23-.6.32c-2.201.08-1.7.12-1.6-2.2q1.05.147 2.11.16c.115.566.145 1.146.09 1.72" clip-rule="evenodd"/>
  </symbol>
  <symbol id="streamline-search" viewBox="0 0 24 24">
    <path fill="currentColor" d="M16.195 8.05a5.74 5.74 0 0 0-1.248-2.655c-.19-.23-.39-.5-.62-.73a2.1 2.1 0 0 0-.578-.429a.34.34 0 0 0-.44.12h-.13a36 36 0 0 0-2.915 1.858c-.47.329-.94.659-1.398.998L7.527 8.341c-.689.609-1.418 1.228-2.087 1.897c-.31.31-.599.629-.878.998a4.2 4.2 0 0 1-.14-1.647a8.3 8.3 0 0 1 2.277-4.424a3.7 3.7 0 0 1 1.138-.759a5.4 5.4 0 0 1 1.867-.33a12.8 12.8 0 0 1 2.996.35a.3.3 0 0 0 .31-.22a.31.31 0 0 0-.22-.37a14.2 14.2 0 0 0-3.106-.478a6.1 6.1 0 0 0-2.147.31c-2.127.748-3.924 3.794-4.204 5.79a5.8 5.8 0 0 0 .49 3.107A6.36 6.36 0 0 0 5.78 14.98a4.8 4.8 0 0 0 1.588.75a7 7 0 0 0 1.647.249a7.44 7.44 0 0 0 4.364-1.308a6.47 6.47 0 0 0 2.627-3.685a7 7 0 0 0 .19-2.936M4.881 12.046a1 1 0 0 1-.07-.17q.57-.549 1.209-1.018c.729-.58 1.497-1.098 2.236-1.628s1.259-.998 1.868-1.488a78 78 0 0 0 1.827-1.527c.62-.53 1.059-.84 1.598-1.219q.127.096.24.21c.2.22.38.48.549.699c.48.582.82 1.265.999 1.997c-1.06.65-2.138 1.238-3.196 1.877q-1.177.696-2.277 1.508A21 21 0 0 0 6.7 14.282l-.22-.13a5.26 5.26 0 0 1-1.598-2.067zm10.266-1.348a5.48 5.48 0 0 1-2.327 3.086a6.4 6.4 0 0 1-3.745.998a5.5 5.5 0 0 1-1.398-.2c-.13 0-.25-.09-.37-.13c.45-.389.9-.748 1.369-1.098c.47-.35.998-.659 1.468-.998l1.478-.999q1.937-1.328 3.804-2.736a6.1 6.1 0 0 1-.28 2.117z"/><path fill="currentColor" d="M23.245 20.553a3.6 3.6 0 0 0-.18-.639a4.4 4.4 0 0 0-.539-.998a11.5 11.5 0 0 0-.998-1.249a17 17 0 0 0-1.698-1.607c-.829-.68-1.698-1.298-2.576-1.997q.395-.76.649-1.578q.373-1.228.559-2.497c.157-.812.23-1.639.22-2.466a5.6 5.6 0 0 0-.29-1.698a12 12 0 0 0-.57-1.448a5.2 5.2 0 0 0-.568-.939a6.7 6.7 0 0 0-1.318-1.288c-.736-.52-1.53-.953-2.367-1.288a13 13 0 0 0-1.797-.629a7.2 7.2 0 0 0-1.998-.23a8.6 8.6 0 0 0-2.426.49C6.58.77 5.84 1.122 5.14 1.54c-.6.34-1.166.738-1.688 1.188C1.216 4.696.757 8.99.727 9.458a8.4 8.4 0 0 0 .54 3.736q.18.452.419.878c.23.4.489.79.759 1.179a9 9 0 0 0 1.837 2.047a5.4 5.4 0 0 0 1.668.899q1.037.338 2.117.499c.491.082.99.112 1.488.09a9.2 9.2 0 0 0 2.276-.44a14 14 0 0 0 2.078-.918q.202.24.379.499c.43.66.769 1.368 1.168 1.997q.422.652.919 1.248q.47.586.999 1.119a6.53 6.53 0 0 0 3.505 1.678a2 2 0 0 0 2.326-1.658q.06-.262.09-.53q.015-.264 0-.529a4 4 0 0 0-.05-.699m-1.158 1.468a1 1 0 0 1-1.139.79a5.4 5.4 0 0 1-2.836-1.25a12 12 0 0 1-.998-.998a10 10 0 0 1-.919-1.088c-.44-.62-.839-1.308-1.298-1.937a6 6 0 0 0-.39-.46l.13-.09q.333-.238.63-.519a.36.36 0 0 0 0-.49a.34.34 0 0 0-.48 0a4 4 0 0 1-.549.43a6 6 0 0 1-.6.37a15 15 0 0 1-1.996.838a8.3 8.3 0 0 1-2.137.36a6.4 6.4 0 0 1-1.638-.17a11 11 0 0 1-1.638-.45a4.7 4.7 0 0 1-1.677-1.048a8.8 8.8 0 0 1-1.298-1.607c-.23-.36-.47-.72-.68-1.119q-.195-.37-.349-.759a7.4 7.4 0 0 1-.41-3.285c.46-5.293 3.146-6.55 3.915-6.99A11.3 11.3 0 0 1 7.727 1.6a7.2 7.2 0 0 1 2.107-.45a6.2 6.2 0 0 1 1.668.18a12 12 0 0 1 1.658.53q.962.371 1.847.898a5.5 5.5 0 0 1 1.498 1.239q.285.354.49.759q.33.643.568 1.328c.164.463.261.947.29 1.438c.024.778-.026 1.557-.15 2.326a18 18 0 0 1-.37 1.998a9 9 0 0 1-.698 1.907q-.242.523-.57.998a6.3 6.3 0 0 1-.719.85a.304.304 0 0 0 .42.439q.44-.428.809-.919c.11-.15.2-.31.3-.47c.808.68 1.617 1.319 2.386 1.998q.815.744 1.518 1.598q.47.562.869 1.178q.238.381.379.809q.075.245.12.499q.015.24 0 .48z"/>
  </symbol>
  <symbol id="streamline-account" viewBox="0 0 24 24">
    <g fill="currentColor" fill-rule="evenodd" clip-rule="evenodd"><path d="M10.12 17.062c-1.995 0-6.274-.14-8.09-.888c-.269-.11-.478-.18-.508-.329c-.29-1.227-.848-12.348-.429-14.712a.301.301 0 0 0-.588-.13c-.609 2.544-.709 12.399-.07 15.102c.086.313.285.583.558.758c1.676 1.107 7.122.997 9.127.878a.339.339 0 1 0 0-.679M2.1 1.003c2.085-.09 15.421.15 17.127.668c.31.32.499 2.993.579 3.621c.19 1.426.319 2.633.399 4.09a.3.3 0 1 0 .598 0c0-1.307-.08-2.843-.17-4.17c-.08-1.157 0-3.69-.747-4.359C18.469-.433 4.266.095 2.06.285a.36.36 0 1 0 .04.718m1.038 1.995a.75.75 0 0 0 1.057 0a.64.64 0 0 0-.21-.868c-.628-.32-1.436.32-.847.868"/><path d="M5.402 2.788a.77.77 0 0 0 1.068 0a.64.64 0 0 0-.18-.838c-.658-.369-1.476.27-.888.838m2.484 0a.76.76 0 0 0 1.087-.04a.64.64 0 0 0-.18-.837c-.688-.33-1.496.309-.907.877M1.562 4.853c1.257 0 4.439.26 8.309.26c3.491 0 5.765-.16 8.319-.23a.34.34 0 0 0 0-.678c-5.556 0-6.045-.549-16.648 0a.324.324 0 0 0 .02.648m21.505 15.72a6.63 6.63 0 0 0-2.992-2.104c2.793-1.716 2.593-6.683-.788-7.342a.34.34 0 0 0-.399.27c-.13.598.788.199 1.676 1.326c1.356 1.746.389 6.155-4.17 5.097c-3.46-.708-3.052-6.813 1.726-6.503a.3.3 0 0 0 .318-.386a.3.3 0 0 0-.258-.213a4.269 4.269 0 0 0-2.843 7.98c-2.194.878-3.99 2.663-3.69 4.987a.3.3 0 0 0 .598 0c.11-1.446 1.995-3.271 3.052-4.06c.898-.548.878-.518.998-.618c1.017.239 2.08.19 3.072-.14a15 15 0 0 1 2.174 1.706a5.5 5.5 0 0 1 1.846 2.993a.3.3 0 0 0 .598 0a4.2 4.2 0 0 0-.918-2.993"/><path d="M17.063 13.86a4.35 4.35 0 0 1-2.394.639a.3.3 0 1 0-.05.598c1.995.37 2.783 0 4.429-1.087c.618.608 1.187 1.426 1.556.997a.34.34 0 0 0 0-.478c-.848-.888-.928-1.886-1.816-1.626q-.9.412-1.725.957M5.711 7.127a1.875 1.875 0 0 0-1.995-.818a1.57 1.57 0 0 0-.997.998a1.386 1.386 0 0 0 1.686 1.785A1.676 1.676 0 0 0 5.71 7.127m-1.426.858c-.439.14-.658-.2-.539-.519c.45-1.147 2.125.05.539.52m11.572-.35c-.11 0-2.993-.3-3.112-.31c-.619-.079-.738-.907-2.444 0c-.469.25-.4.22-.998-.049c-.249-.13-.808-.569-1.276-.419c-.47.15-.46.419-.569.778c0 .1-.25.36-.05.559a.32.32 0 0 0 .569-.14a.6.6 0 0 0 .1-.21c0-.07.179-.179.199-.269c.798.579 1.207 1.068 2.105.848a7 7 0 0 1 1.127-.379a.6.6 0 0 1 .299.11c.256.155.541.257.838.299h3.252c.47-.038.935-.128 1.386-.27a.35.35 0 0 0-.17-.668a8 8 0 0 1-1.256.12m-3.731 5.247c0-.678-1.287-.08-1.706 0c-.418.08-1.336-.998-2.074-.728a.9.9 0 0 0-.37.319q-.257.477-.408.997a.301.301 0 1 0 .548.25c.14-.21.45-.4.559-.549c.362.322.782.572 1.237.738c1.097.15 1.227-.539 1.995-.668a.33.33 0 0 0 .22-.36m-9.407.15a1.407 1.407 0 0 0 1.995 1.397a1.47 1.47 0 0 0 .878-.998c.389-1.925-2.733-2.453-2.873-.399m1.995.14a.54.54 0 0 1-.768.19a.67.67 0 0 1-.1-.748a.6.6 0 0 1 .29-.17c.777-.14.648.648.608.728z"/></g>
  </symbol>
  <symbol id="streamline-lock" viewBox="0 0 24 24">
    <g fill="currentColor" fill-rule="evenodd" clip-rule="evenodd"><path d="M23.751 12.152c-.07-.09-.28-.3-.31-.34l-.449-.56c-.11-.12-.21-.269-.35-.419a4 4 0 0 0-.449-.4a4 4 0 0 0-.799-.439l1.049-1.108c.06-.09.3-.24.37-.34a.5.5 0 0 0 .09-.26a.36.36 0 0 0-.36-.36c-.23 0-.37.2-1.928 1.569c-.999.939-2.087 1.818-3.126 2.747c-.69.629-1.349 1.288-1.998 1.927l-1.738 1.878c-.08.09-.519.55-.709.779a4 4 0 0 0-.41-.27a4.125 4.125 0 0 0-5.663 2.258a3.776 3.776 0 0 0 1.998 4.764a3.994 3.994 0 0 0 4.924-1.099a.354.354 0 1 0-.53-.47a3.226 3.226 0 0 1-3.944.67a2.717 2.717 0 0 1-1.339-3.456a3.14 3.14 0 0 1 1.668-1.738a3.1 3.1 0 0 1 2.457-.08c.57.239 1.043.665 1.339 1.209c.311.572.47 1.216.46 1.868a.31.31 0 0 0 .299.33a.32.32 0 0 0 .33-.3a4.7 4.7 0 0 0-.39-2.248a3.6 3.6 0 0 0-.72-.999c.21-.21.66-.589.75-.659l1.907-1.618l.86-.709q.47.566.998 1.079q.35.313.74.58c.409.289.788.499 1.128.788a.36.36 0 0 0 .54-.47a8 8 0 0 0-.9-1.158l-.45-.42a5 5 0 0 0-.489-.349c-.29-.18-.629-.35-.998-.53c.41-.359.829-.728 1.228-1.108a33 33 0 0 0 1.998-2.087q.241.245.44.529c.13.17.249.34.389.5q.266.265.57.489l.638.39s.26.239.32.179a.35.35 0 0 0 .28.14c.23 0 .3-.14.35-.26a.42.42 0 0 0-.07-.42M4.015 16.337a19 19 0 0 1-2.397-.4a2 2 0 0 1-.07-.39c-.07-.399-.1-.998-.14-1.568c-.04-.569-.07-1.358-.11-2.077c0-.48-.06-.999-.07-1.398c0-.93 0-2.697.08-3.406a39 39 0 0 1 6.562-.27c1.13.06 2.268.15 3.286.28q1.014.105 1.998.37v.06c.325 1.306.493 2.647.5 3.994a.32.32 0 0 0 .629 0a23 23 0 0 0-.05-3.785a2.9 2.9 0 0 0-.23-.909a.74.74 0 0 0-.41-.35a7 7 0 0 0-.888-.29a7.4 7.4 0 0 0-1.648-4.734A4.73 4.73 0 0 0 7.39.006a5.07 5.07 0 0 0-2.996.999a5.34 5.34 0 0 0-1.688 2.597q-.16.489-.22.999a7 7 0 0 0 0 .998v.5q-.746.112-1.468.33c-.61.16-.84 5.083-.86 5.563s0 .689 0 .999q.03 1.04.19 2.067c.052.552.237 1.084.54 1.548c.232.206.521.338.829.38c.51.05 1.308.1 2.267.11a.34.34 0 0 0 .38-.33a.36.36 0 0 0-.35-.43m9.08-8.99l.05.07c.049.07-.07-.01-.03-.03zM3.105 5.59q.013-.453.1-.898q.075-.43.25-.83a4.5 4.5 0 0 1 1.558-1.977a4.13 4.13 0 0 1 2.407-.68a3.69 3.69 0 0 1 3.386 1.619A7.14 7.14 0 0 1 11.925 6h-.14a20 20 0 0 0-2.777-.29A38.5 38.5 0 0 0 3.196 6a2.5 2.5 0 0 0-.05-.37z"/><path d="M9.01 12.122a1.52 1.52 0 0 0 .359-1.129a.36.36 0 0 0-.72 0a.62.62 0 0 1-.719.63a1.74 1.74 0 0 1-1.068-.49a.64.64 0 0 1-.27-.46c-.03-.38.05-.762.23-1.098a.8.8 0 0 1 .719-.49c.233.02.462.073.679.16c.7.3.24.56.68.59a.31.31 0 0 0 .329-.29a.84.84 0 0 0-.33-.72a3.3 3.3 0 0 0-1.238-.639a1.71 1.71 0 0 0-1.538.46a2.8 2.8 0 0 0-.73 2.067a1.67 1.67 0 0 0 .56 1.159c.408.364.916.597 1.458.67a1.77 1.77 0 0 0 1.598-.42"/></g>
  </symbol>
  <symbol id="streamline-settings" viewBox="0 0 24 24">
    <path fill="currentColor" d="M10.154 6.94a5.06 5.06 0 0 0-2.69 1.88a4.94 4.94 0 0 0-.63 3.938a4.33 4.33 0 0 0 2.7 3.05a5.8 5.8 0 0 0 2.819.24a6.5 6.5 0 0 0 2.57-1.05q.463-.313.859-.71q.29-.3.5-.66c.16-.314.268-.651.32-1a4.8 4.8 0 0 0 0-1.47a6 6 0 0 0-1.06-2.559a4.78 4.78 0 0 0-5.388-1.66M14.862 9c.448.665.726 1.43.81 2.229a3.6 3.6 0 0 1 0 1a2.2 2.2 0 0 1-.27.87a2 2 0 0 1-.46.509a4.4 4.4 0 0 1-.63.46c-.646.43-1.38.714-2.149.83a4.54 4.54 0 0 1-2.25-.2a3.27 3.27 0 0 1-1.999-2.25a4 4 0 0 1 .34-3.159a4.1 4.1 0 0 1 2.13-1.63A3.6 3.6 0 0 1 14.862 9"/><path fill="currentColor" d="M23.98 10.469a3.2 3.2 0 0 0-.08-.78a1 1 0 0 0-.21-.43a1.26 1.26 0 0 0-.59-.38a3.7 3.7 0 0 0-.76-.13a3 3 0 0 1-1.25-.2a.76.76 0 0 1-.37-.55l-.22-1l-.16-.619c.09-.32.51-.53.7-.82a1 1 0 0 0 .14-.84a1.86 1.86 0 0 0-.47-.72c-.4-.42-1-.729-1.369-1.069c-.22-.19-.47-.49-.74-.71a1.8 1.8 0 0 0-.47-.29a1.07 1.07 0 0 0-.93.05c-.42.23-.74.79-1.07 1a.46.46 0 0 1-.329 0a3.5 3.5 0 0 1-.53-.12a3.2 3.2 0 0 1-.86-.34a.7.7 0 0 1-.3-.35l-.31-1.14a1.8 1.8 0 0 0-.08-.42a.5.5 0 0 0-.17-.24a1.2 1.2 0 0 0-.41-.17a1.6 1.6 0 0 0-.59-.06a.341.341 0 1 0 .06.68q.15-.02.3 0h.17v.25l.33 1.27c.11.286.305.531.56.7c.327.197.68.346 1.05.44q.395.135.81.18a1.17 1.17 0 0 0 .69-.17c.28-.18.56-.62.9-.88a.38.38 0 0 1 .38-.09q.2.102.36.26c.22.21.43.46.63.63s.779.55 1.139.88a1.2 1.2 0 0 1 .41.59c0 .14-.09.22-.19.32s-.29.27-.42.42q-.166.201-.25.45a1.1 1.1 0 0 0 0 .44q.063.33.17.649l.21 1a1.67 1.67 0 0 0 .73 1.07a4.1 4.1 0 0 0 1.63.35q.242.006.479.07a.36.36 0 0 1 .23.11l.06.599q.056.82-.01 1.64a1.07 1.07 0 0 1-.22.62l-.4.08a3.2 3.2 0 0 0-.7.29q-.253.142-.45.36c-.23.257-.428.543-.59.849q-.36.63-.64 1.3a3.1 3.1 0 0 0-.25 1.23c.021.444.144.879.36 1.269c.11.22.31.5.42.78c0 .09.09.17 0 .24l-1.529 1.14l-.43.28l-.84-.57a2.6 2.6 0 0 0-1.2-.29a4.15 4.15 0 0 0-1.629.44a4 4 0 0 0-.89.52c-.18.146-.314.34-.39.559l-.26 1.45l-.06.12a3 3 0 0 1-.59 0c-.429-.06-.859-.16-1.259-.21l-.45-.09a.35.35 0 0 1-.2-.07c-.32-.28-.35-.72-.58-1a1.54 1.54 0 0 0-.7-.53l-1.519-.49c-.25-.09-.52-.23-.79-.31a1.7 1.7 0 0 0-.5-.08c-.186 0-.37.04-.54.12a2.2 2.2 0 0 0-.55.36q-.133.15-.309.25a5 5 0 0 0-.37-.3c-.37-.28-.79-.54-1.15-.85a2.1 2.1 0 0 1-.5-.58a.57.57 0 0 1 0-.51c.2-.49.59-.999.72-1.419a1.6 1.6 0 0 0 0-.7a6.5 6.5 0 0 0-.39-1.09l-.26-.53a1.4 1.4 0 0 0-.67-.56a2.3 2.3 0 0 0-.69-.08a1 1 0 0 1-.459-.1c0-.069-.07-.319-.11-.429c-.11-.47-.28-.87-.43-1.29a2.7 2.7 0 0 1 0-.75a.55.55 0 0 1 .19-.43q.65-.304 1.25-.699a1.2 1.2 0 0 0 .24-.3c.11-.17.19-.37.28-.53s.36-.6.52-.9a3.7 3.7 0 0 0 .29-.71a1.47 1.47 0 0 0-.09-1.059a8 8 0 0 0-.73-1a1.2 1.2 0 0 1-.16-.27c0-.07-.07-.15 0-.22a4 4 0 0 1 .53-.64q.472-.46 1-.86q.198-.162.43-.28a.85.85 0 0 1 .399-.1l.35.28a4 4 0 0 0 .56.42q.222.134.47.21c.231.07.478.07.71 0q.562-.254 1.08-.59l.469-.27l.37-.259a.9.9 0 0 0 .34-.62a1.7 1.7 0 0 0-.07-.6a.83.83 0 0 1 0-.47l.31-.15q.37-.158.77-.22q.62-.112 1.25-.16a.3.3 0 1 0 0-.6q-.688.046-1.36.19a5 5 0 0 0-.93.25a2.6 2.6 0 0 0-.47.16a.63.63 0 0 0-.21.28c-.15.42.09.8 0 1.16a.26.26 0 0 1-.11.18l-.28.19l-.4.27c-.23.11-.54.34-.86.47a.67.67 0 0 1-.4.08a2 2 0 0 1-.38-.2c-.13-.09-.26-.2-.38-.3a2.5 2.5 0 0 0-.43-.37a.8.8 0 0 0-.349-.11a1.4 1.4 0 0 0-.63.11q-.389.154-.72.41q-.574.42-1.1.9a4.6 4.6 0 0 0-.65.75a.9.9 0 0 0-.1.69c.047.268.157.522.32.74q.36.426.64.909a.68.68 0 0 1 0 .47a2.7 2.7 0 0 1-.25.54c-.16.3-.35.58-.52.86l-.34.6c-.439.38-1.059.459-1.419.819a1.36 1.36 0 0 0-.41.91c-.02.336.01.673.09 1c.1.45.27.89.41 1.329a4 4 0 0 0 .14.55a.83.83 0 0 0 .3.39c.243.195.532.322.84.37q.255.008.5.08a.37.37 0 0 1 .17.16l.17.36q.141.327.25.67a.8.8 0 0 1 .07.44c-.16.519-.66.999-.81 1.609a1.54 1.54 0 0 0 .13 1.14c.193.342.447.647.75.9c.37.319.81.589 1.19.889q.266.25.58.44c.188.102.406.14.619.11a1.7 1.7 0 0 0 .48-.19q.248-.162.47-.36c.09-.07.18-.18.3-.18a.9.9 0 0 1 .27.06c.22.08.44.19.65.27l1.519.44a.44.44 0 0 1 .18.14c.27.38.36.89.74 1.22c.138.118.298.21.47.27q.413.11.84.15c.47.06.999.19 1.489.23q.385.036.77 0a.9.9 0 0 0 .46-.21c.171-.165.307-.362.4-.58a2.4 2.4 0 0 0 .16-.58q.04-.504.14-1c0-.09.15-.12.25-.18s.3-.14.41-.19a3.4 3.4 0 0 1 .999-.33c.29-.04.587.009.85.14c.23.12.55.43.84.56a1 1 0 0 0 .46.12a1.1 1.1 0 0 0 .489-.09q.339-.157.63-.39l1.6-1.27a1.11 1.11 0 0 0 .39-.93a4.3 4.3 0 0 0-.59-1.39a1.65 1.65 0 0 1-.23-.779a2.05 2.05 0 0 1 .17-.83q.225-.62.52-1.21q.18-.38.45-.71a.9.9 0 0 1 .27-.199q.187-.096.389-.16c.13 0 .3-.05.44-.1a1.1 1.1 0 0 0 .33-.19c.273-.27.451-.62.51-1q.12-.936.06-1.88"/>
  </symbol>
  <symbol id="streamline-external" viewBox="0 0 24 24">
    <g fill="currentColor" fill-rule="evenodd" clip-rule="evenodd"><path d="M20.002 4.438c-4.733 0-7.005-.54-17.21 0a.31.31 0 0 0-.241.17v.21a.29.29 0 0 0 .29.22c1 0 3.242.15 6.004.23c4.673.141 8.325-.13 11.187-.2a.34.34 0 1 0-.03-.63"/><path d="M1.81 1.126a.303.303 0 0 0-.59-.14c-.66 2.892-.7 13.348-.06 16.12a1 1 0 0 0 .49.62c1.461.89 7.255.83 9.406.84a.34.34 0 0 0 0-.68a49.5 49.5 0 0 1-8.255-.89c-.26-.08-.46-.33-.58-.28c-.32-1.621-1.06-11.277-.41-15.59m1.06-.14c2.742-.15 13.448.11 16.56.51c1.2.15 1.1.07 1.23.54c.541 1.912.801 9.517.851 11.498a.3.3 0 1 0 .6 0c0-1.701.1-6.324 0-8.005c-.09-1.23 0-3.942-.81-4.643c-1.45-1.34-16.38-.81-18.48-.63a.366.366 0 0 0 .05.73"/><path d="M3.932 3.147a.76.76 0 0 0 1.06-.05a.69.69 0 0 0-.18-.89c-.65-.35-1.48.33-.88.94m2.351-.24a.76.76 0 0 0 1.1 0a.69.69 0 0 0-.19-.92c-.68-.37-1.52.31-.91.92m2.562 0a.76.76 0 0 0 1.1 0a.69.69 0 0 0-.19-.92c-.68-.37-1.52.31-.91.92m12.227 18.592c.22-.13.4-.63-1.48-3.002a17 17 0 0 0-2.202-3.192c-.63-.79-.92-1.441-1.32-1c-.221.2-.121.18.55 1.53a14 14 0 0 0 2.16 3.162c-.26-.43 1.762 2.842 2.292 2.502"/><path d="M23.183 20.408a8.8 8.8 0 0 0-.79-1.671a2.67 2.67 0 0 0-2.001-1.561a.35.35 0 1 0-.08.69c1 .13 1.64 2.002 1.85 2.832s-.5 2.141-1.51 2.121c-.61 0-3.002-1.63-2.772-3.192l.31-.31a.31.31 0 0 0-.49-.38c-.15.19-.37.12-.48.55c-.51 2.002 2.001 4.463 3.422 4.513a2.802 2.802 0 0 0 2.541-3.592m-7.584-3.512a4.2 4.2 0 0 1-1-1.421a5.5 5.5 0 0 1-.411-2.482a1.65 1.65 0 0 1 2.231-.82c.679.33 1.277.804 1.751 1.39c.48.561.55.721.42 1.662c-.06.41.561.59.881.15c.62-.86-1.07-3.802-3.152-4.403a2.562 2.562 0 0 0-3.242 3.132a5.1 5.1 0 0 0 2.062 3.362c.36.26 1.06.61 1.47.43c.14-.14.54-.27.37-.6c-.29-.53-.41.45-1.38-.4"/></g>
  </symbol>
  <symbol id="streamline-users" viewBox="0 0 24 24">
    <g fill="currentColor" fill-rule="evenodd" clip-rule="evenodd"><path d="M18.479 5.4a6.5 6.5 0 0 0-1.864-3.757A12.4 12.4 0 0 0 14.69.467a.369.369 0 0 0-.32.658q.904.481 1.715 1.106a5.62 5.62 0 0 1 1.485 3.638q-1.24.082-2.481 0a8.2 8.2 0 0 0-.539-2.183c.708 0 1.346 0 1.844-.08a.369.369 0 0 0 0-.727c-.588 0-1.365-.14-2.222-.24l-.36-.996a.323.323 0 1 0-.617.19l.15.707q-1.243-.134-2.493-.12A3.87 3.87 0 0 1 12.33.827a.3.3 0 0 0 .14-.13h.288a.32.32 0 1 0 .07-.638C9.647-.36 7.275 1.513 6.029 4.534a5.81 5.81 0 0 0 2.073 6.907a6.578 6.578 0 0 0 10.377-6.04m-.937 1.257a5.2 5.2 0 0 1-.549 1.734a6.7 6.7 0 0 1-2.073.349a9 9 0 0 0 .22-1.744q1.21-.097 2.401-.34m-10.795-.2c.578.12 1.325.24 2.163.35a7 7 0 0 0 .2 1.913c-.669 0-1.297-.09-1.895-.17a4.8 4.8 0 0 1-.468-2.093m3.359.539a29 29 0 0 0 3.817 0q0 .876-.13 1.744h-3.567a10 10 0 0 1-.12-1.744m3.478-3.2q.244 1.058.29 2.143c-1.904-.08-3.26-.08-3.698-.08q.086-1.081.309-2.143c1.305.02 2.222.03 3.1.03zM11.202.806A4.3 4.3 0 0 0 9.767 2.55q-.84.064-1.665.24a4.76 4.76 0 0 1 3.1-2.014zm-3.628 2.8q.892-.06 1.784 0A10 10 0 0 0 8.96 5.82H6.797a6 6 0 0 1 .777-2.212m.13 5.792c.548.14 1.126.269 1.724.369c.177.456.411.888.698 1.285A4.8 4.8 0 0 1 7.704 9.4m3.867 1.993a3.55 3.55 0 0 1-.997-1.505a15.4 15.4 0 0 0 2.99 0a3.6 3.6 0 0 1-.558 1.485a4.7 4.7 0 0 1-1.435.06zm2.572-.409c.947-1.893-.32-.847 2.103-1.554a5.9 5.9 0 0 1-2.103 1.554M6.707 17.88c-.12.15-.06.389-.728.389s-.478-.588-.996-.558c-.17 0-.24.169-.21.338c.177.361.458.66.808.858a1.265 1.265 0 0 0 1.664-.808c0-.08.05-.07.05-.17a.3.3 0 0 0-.588-.049m12.09-.1c-.12.15-.06.39-.717.39c-.658 0-.489-.589-1.047-.56c-.16 0-.239.17-.21.34c.183.36.467.658.818.857a1.265 1.265 0 0 0 1.665-.847v-.17a.3.3 0 0 0-.509-.01"/><path d="M23.093 21.628a4.87 4.87 0 0 0-2.77-1.625c2.152-1.694 1.843-5.98-.888-6.509a.339.339 0 0 0-.15.658a2.22 2.22 0 0 1 1.556 1.994a1.63 1.63 0 0 1-1.326-.419c-.349-.548-.26-.369-.349-.698c-.09-.329-.578-.628-1.086-.14c-.26.26-.359.629-.997.948a2.6 2.6 0 0 1-1.096.349c-.608.06-.479 0-.718 0a2.79 2.79 0 0 1 3.15-2.423a.3.3 0 0 0 .331-.133a.3.3 0 0 0-.034-.357a.3.3 0 0 0-.228-.098c-4.405-.538-5.551 5.064-2.76 6.978a6.2 6.2 0 0 0-1.615.657a3.07 3.07 0 0 0-1.685 2.891a.3.3 0 0 0 .598 0c.122-.533.443-1 .897-1.306a11.4 11.4 0 0 1 2.682-1.794a4.48 4.48 0 0 0 2.9-.06c.97.45 1.865 1.05 2.651 1.774c.458.302.78.77.897 1.306a.3.3 0 0 0 .599 0a2.5 2.5 0 0 0-.559-1.993m-6.03-2.143a2.61 2.61 0 0 1-1.814-2.652a3.17 3.17 0 0 0 3.26-.697a2.42 2.42 0 0 0 2.312.747c-.19 2.073-1.545 3.16-3.758 2.602M9.877 20.68a6.3 6.3 0 0 0-1.675-.667c2.153-1.684 1.864-5.92-.887-6.499a.333.333 0 1 0-.15.648a2.24 2.24 0 0 1 1.555 1.994a1.62 1.62 0 0 1-1.325-.419c-.35-.548-.26-.369-.35-.688a.547.547 0 0 0-.797-.349c-.378.18-.528.549-.737.768a2.72 2.72 0 0 1-2.333.688a2.8 2.8 0 0 1 3.15-2.422a.3.3 0 0 0 .07-.588c-4.226-.599-5.672 4.983-2.761 6.977a4.83 4.83 0 0 0-2.711 1.595a2.5 2.5 0 0 0-.588 1.943a.3.3 0 0 0 .598 0c.07-.747.937-1.356 1.535-1.824a8.1 8.1 0 0 1 1.924-1.206a.4.4 0 0 0 .12-.07a4.45 4.45 0 0 0 2.9-.06a9.4 9.4 0 0 1 1.993 1.256c.598.469 1.465 1.077 1.535 1.824a.298.298 0 0 0 .414.277a.3.3 0 0 0 .184-.277a3.06 3.06 0 0 0-1.664-2.9m-4.924-1.185a2.6 2.6 0 0 1-1.824-2.652a3.17 3.17 0 0 0 3.259-.697a2.46 2.46 0 0 0 2.312.757c-.189 2.054-1.545 3.15-3.747 2.592"/></g>
  </symbol>
  <symbol id="streamline-filter" viewBox="0 0 24 24">
    <path fill="currentColor" d="M2.022 10.068q.49.952 1.138 1.806c.432.572.92 1.1 1.456 1.576a10.4 10.4 0 0 0 4.15 2.385a.388.388 0 1 0 .24-.739a10.15 10.15 0 0 1-3.542-2.524a15 15 0 0 1-1.257-1.496c-.3-.38-.389-.45-.648-.799c-.699-.818-1.786-.678-1.537-.21m19.616-7.153a.43.43 0 0 0-.55 0a.367.367 0 0 0 0 .539a2.155 2.155 0 0 1 .39 2.744a6.8 6.8 0 0 1-4.08 2.554c-2.13.45-4.3.684-6.476.698a16.7 16.7 0 0 1-6.276-.997a5.6 5.6 0 0 1-.838-.47a4.6 4.6 0 0 1-.738-.498C1.872 6.486 1.553 5.658 1.862 4.88c.55-1.387 2.575-2.415 4.26-2.884q1.306-.43 2.655-.698q1.346-.24 2.714-.3a23 23 0 0 1 4.21.19c1.399.19 2.78.49 4.13.898a.34.34 0 0 0 .21-.649A26 26 0 0 0 15.811.35A25 25 0 0 0 11.46 0q-1.44.029-2.863.25q-1.419.218-2.803.6C3.748 1.417 1.343 2.734.665 4.39a2.82 2.82 0 0 0 .22 2.504c.336.516.754.975 1.237 1.357c.449.38.908.788.998.868q.481.271.997.469c1.733.639 3.562.976 5.408.998a31 31 0 0 0 8.042-.908a9 9 0 0 0 4.41-2.694q.176-.216.27-.48c.458-1.146.728-2.653-.61-3.59m.25 4.969a7.2 7.2 0 0 1-1.187 2.145a11.5 11.5 0 0 1-1.227 1.596q-.69.756-1.487 1.397a13.5 13.5 0 0 1-4.2 2.325a.38.38 0 0 0-.25.26s-.07-.05-.11-.05a.388.388 0 0 0-.429.409c-.07.748 0 1.855 0 2.783a2.4 2.4 0 0 1-.24.998a3 3 0 0 1-.408.509c-.44.449-.998.898-1.387 1.267l-.51.579l-.079-1.138a60 60 0 0 1-.22-2.993c0-.679-.06-1.347-.07-1.996a.34.34 0 0 0-.318-.349a.35.35 0 0 0-.36.33c-.07.848-.12 1.706-.15 2.554s-.09 1.546-.1 2.444v1.597c0 .209-.099.608-.069.788a.76.76 0 0 0 .24.479a.68.68 0 0 0 .728.13c.275-.102.53-.254.748-.45q.57-.546 1.068-1.157c.329-.39.878-.878 1.297-1.367q.309-.364.529-.788c.196-.454.298-.942.299-1.437c0-.898-.16-1.925-.16-2.674a.44.44 0 0 0 .2 0a13.8 13.8 0 0 0 4.7-2.105a10.3 10.3 0 0 0 1.705-1.497a10 10 0 0 0 1.108-1.496c.28.197.5.466.638.778c.314.793.35 1.669.1 2.484a4 4 0 0 1-1.307 1.727a6.5 6.5 0 0 1-1.995 1.127a3.91 3.91 0 0 1-4.24-.659a.389.389 0 0 0-.59.5a4.79 4.79 0 0 0 5.189 1.316a6.6 6.6 0 0 0 2.504-1.287a4.86 4.86 0 0 0 1.596-2.404a5 5 0 0 0-.468-3.213a2.63 2.63 0 0 0-1.058-.998c.538-.811.833-1.76.848-2.734c-.03-.449-.539-.269-.878.27"/>
  </symbol>
  <symbol id="streamline-chart" viewBox="0 0 24 24">
    <g fill="currentColor" fill-rule="evenodd" clip-rule="evenodd"><path d="M20.229 22.569c-3.994-.32-7.698.19-11.582.19c-.929 0-1.887 0-2.846-.11c-.549 0-1.926 0-3.115-.16c-.669-.09-1.298-.18-1.517-.51a1.5 1.5 0 0 1-.07-.758c0-.639.09-1.358.09-1.647c0-2.087-.05-4.843 0-7.339c0-1.118 0-2.186.08-3.125c0-.569.06-1.138.07-1.717c.07-2.266 0-4.533.12-6.8a.29.29 0 0 0-.3-.309a.29.29 0 0 0-.29.27C.71 2.55.67 4.547.57 6.544C.53 7.363.47 8.212.4 9.01a83 83 0 0 0-.23 4.264c-.06 2.196-.06 4.493-.07 6.3c0 .34-.11 1.228-.1 1.927c-.006.379.084.753.26 1.088c.452.498 1.07.814 1.737.889q1.856.22 3.725.19c.998.06 1.996.07 2.935 0c3.874-.09 7.518-.7 11.532-.49a.34.34 0 0 0 .34-.3a.33.33 0 0 0-.3-.309"/><path d="M6.99 6.315a1.53 1.53 0 0 0-2.097-.859a2.15 2.15 0 0 0-1.098 1.737a1.318 1.318 0 0 0 1.417 1.458q.224-.006.44-.06q.293-.093.569-.23a.3.3 0 0 0 .16-.19a1.9 1.9 0 0 0 .609-1.856M5.92 7.653a.32.32 0 0 0-.19.26H5.6a1.3 1.3 0 0 1-.339 0a.53.53 0 0 1-.489-.47a1 1 0 0 1 .11-.43c.098-.24.274-.44.5-.569c.399-.23.768.12.868.49a.26.26 0 0 0 0 .28a.56.56 0 0 1-.33.439m14.05-3.096c.276.236.635.354.998.33q.223 0 .439-.06q.292-.084.559-.23a.32.32 0 0 0 .17-.19a1.38 1.38 0 0 0 .579-1.846a1.52 1.52 0 0 0-2.087-.869a2.16 2.16 0 0 0-1.098 1.747a1.5 1.5 0 0 0 0 .29c.05.317.205.609.44.828m1.716-.669a.3.3 0 0 0-.19.26h-.13a1 1 0 0 1-.338 0a.57.57 0 0 1-.42-.26l.07-.08a.32.32 0 0 0 0-.449h-.1a.4.4 0 0 1 0-.1c.091-.247.268-.452.5-.579c.399-.24.768.13.868.5a.62.62 0 0 1-.28.708zM7.399 8.012l.13.09l1.178.799c.07 0 .25.2.39.28a.64.64 0 0 0 .299.069a.8.8 0 0 0 .49-.24q.36-.4.628-.868q.518-.695 1.108-1.328c.8-.849.939-.58 1.608-.29l1.937.889c.24.12.559.33.868.47q.253.118.53.159a.5.5 0 0 0 .409-.14c.06-.06.19-.25.21-.27l.669-.818c.429-.52.878-.999 1.337-1.528c.44-.489.19-.998-.33-.729l-.239.22c-.509.48-.998.999-1.477 1.478l-.7.769l-.13-.07c-.239-.14-.488-.32-.678-.44l-.809-.419c-.4-.19-.808-.36-1.208-.54a5.5 5.5 0 0 0-.998-.369a1.17 1.17 0 0 0-.75 0a3.8 3.8 0 0 0-1.097.919a12 12 0 0 0-1.019 1.558c-.07.1-.31.399-.489.649l-.14-.05l-1.218-.69l-.27-.16c-.648-.019-.708.2-.239.6m-2.326 8.267a1.52 1.52 0 0 0-1.248 0a2.23 2.23 0 0 0-1.099 1.747a1.308 1.308 0 0 0 1.438 1.448q.224 0 .44-.06q.298-.08.569-.23a.28.28 0 0 0 .16-.19a1.38 1.38 0 0 0 .588-1.846a1.72 1.72 0 0 0-.848-.87m-.2 2.236a.31.31 0 0 0-.19.25h-.13a1.3 1.3 0 0 1-.339 0a.52.52 0 0 1-.49-.47a.9.9 0 0 1 .11-.469c.096-.242.272-.443.5-.569c.4-.24.779.12.868.5a.6.6 0 0 1-.329.758m18.96-9.054a1.535 1.535 0 0 0-2.097-.869a2.18 2.18 0 0 0-1.098 1.747c-.015.354.083.704.28.999a2 2 0 0 0 1.158.489q.223 0 .44-.06q.295-.08.568-.22a.29.29 0 0 0 .16-.2a1.377 1.377 0 0 0 .589-1.886m-1.048 1.338a.29.29 0 0 0-.19.26h-.13a1 1 0 0 1-.34 0a.51.51 0 0 1-.489-.46a.94.94 0 0 1 .11-.48c.098-.24.274-.44.5-.568c.399-.24.778.13.868.499a.6.6 0 0 1-.33.749m-1.906 1.437c.38-.409.16-.998-.32-.639c-.11.1-.23.19-.34.3a11 11 0 0 0-.928.998c-.29.36-.539.799-1.218.36a9.6 9.6 0 0 1-1.068-.999a3.7 3.7 0 0 0-.749-.609a.74.74 0 0 0-.609-.05c-.419.179-.81.417-1.158.71a16.4 16.4 0 0 0-1.707 1.806a6.1 6.1 0 0 1-1.418 1.288a4 4 0 0 1-.25-.33c-.33-.299-.709-.698-1.118-.998a2.75 2.75 0 0 0-.999-.519a1.5 1.5 0 0 0-1.058.08a4.4 4.4 0 0 0-.998.849L5.772 15.58c-.49.56 0 .699.639.29l.998-.899a3.4 3.4 0 0 1 .829-.649a.66.66 0 0 1 .479 0c.25.092.477.235.669.42c.37.309.699.708.998.998c0 0 .39.44.55.569a.62.62 0 0 0 .618.11a4.7 4.7 0 0 0 1.139-.75a19 19 0 0 0 1.677-1.806a6 6 0 0 1 1.428-1.288q.28.125.519.32c.45.452.95.854 1.488 1.197c.29.161.616.25.948.26a.8.8 0 0 0 .47-.19q.36-.374.628-.818c.27-.33.55-.66.849-.999l.16-.16z"/></g>
  </symbol>
  <symbol id="streamline-calendar" viewBox="0 0 24 24">
    <path fill="currentColor" d="M14.788 15.44c-.18 0-.61 0-1.3-.08l.21-.48q.334-.704.52-1.46a1.17 1.17 0 0 0-.29-1.049a2.16 2.16 0 0 0-1.18-.49c-.79-.11-1.779.08-2.359 0c-.435-.083-.88-.1-1.32-.05c-.17.08-.3.47.17.59c.25.06.87.14 1.1.17c.48.06 1.26.07 1.94.18c.35.06.93.31.89.47c-.1.36-.43 1.1-.49 1.28l-.26.75h-.52c-2.15.079-2.22.179-2.39.559s2.27.51 2.37.52h.17l-.9 2.599a.33.33 0 0 0 .444.41a.32.32 0 0 0 .166-.18l1.24-2.82q.75-.05 1.489-.19q.191-.02.37-.09c.18-.1.22-.22.21-.32a.32.32 0 0 0-.28-.319m.97-11.546a4.5 4.5 0 0 0 .24 2.25a1.62 1.62 0 0 0 1.999.779a1.55 1.55 0 0 0 1.1-1a4.9 4.9 0 0 0 .18-1.73V2.735a1.53 1.53 0 0 0-.46-1.2a2.55 2.55 0 0 0-1.82-.41a.32.32 0 0 0-.33.32a.28.28 0 0 0-.32-.17a.41.41 0 0 0-.28.27a5 5 0 0 0-.07 1.06l-.14.61q-.078.335-.1.68m.83-.41s.16-1.86.16-1.93a.33.33 0 0 0 .3.2c.899 0 1.279.17 1.379.52a8 8 0 0 1-.13 1.9q.003.582-.13 1.15c-.07.24-.16.48-.41.54a.72.72 0 0 1-1-.5a5.8 5.8 0 0 1-.17-1.88m-8.036.099c0 .1.07.2.46.24c.56 0 .8.18 1.57.22h2.508c.69 0 1.11-.06 1.81-.11c.33 0 .59-.64.15-.75c-.76-.03-1.28-.16-2.05-.16H11a15 15 0 0 0-1.85.11c-.42.03-.609.3-.599.45"/><path fill="currentColor" d="M22.995 4.094a2.38 2.38 0 0 0-1.27-.72a4.5 4.5 0 0 0-1.419-.14c-.71.1-.52.59-.15.59q.504-.005 1 .08a2 2 0 0 1 1.31.62c.232.467.365.978.39 1.5c.1.779.18 1.789.23 2.898c-1.47 0-4.42-.12-7.728-.18H8.58c-3.579.03-6.688.15-7.667.19a21.3 21.3 0 0 1 .46-4.488a1.17 1.17 0 0 1 .999-.61a4.4 4.4 0 0 1 1.27-.12a.27.27 0 0 0 .07-.51a4.4 4.4 0 0 0-1.88 0a1.65 1.65 0 0 0-1.12.93c-.39.92-.79 5.998-.7 10.496c.07 3.27.46 6.198 1.18 7.078c.53.64 1.91 1 3.65 1.14c2.708.18 6.307-.12 8.166-.12a54 54 0 0 0 6.998-.23a7.9 7.9 0 0 0 3-.88a1.5 1.5 0 0 0 .509-.9c.356-2.053.517-4.135.48-6.218c0-4.478-.37-9.666-1-10.406m-.25 15.455a5.3 5.3 0 0 1-.33 1.28a9.6 9.6 0 0 1-3.528.739c-2.34.19-4.919.1-5.878.1c-1.84 0-5.409.31-8.098.15c-1.38-.08-2.519-.22-2.939-.72c-.68-.79-.97-3.479-1.06-6.448a73 73 0 0 1-.02-5.128c1 0 4.05.16 7.688.23h6.778c3.329-.06 6.288-.15 7.747-.19c0 1 .05 2.13 0 3.229c.02 2.258-.1 4.515-.36 6.758"/><path fill="currentColor" d="M4.481 3.864c-.077.8.001 1.608.23 2.379a1.62 1.62 0 0 0 2 .78a1.54 1.54 0 0 0 1.11-1c.17-.566.23-1.16.18-1.75V2.815a1.55 1.55 0 0 0-.46-1.2a2.54 2.54 0 0 0-1.82-.42a.33.33 0 0 0-.33.33a.28.28 0 0 0-.32-.17a.41.41 0 0 0-.28.27a5.3 5.3 0 0 0-.13 1l-.11.53v.26zm.82-.29s.16-1.85.16-1.93a.32.32 0 0 0 .3.21c.9 0 1.28.17 1.38.52a8 8 0 0 1-.14 1.9q0 .582-.13 1.15c-.06.23-.15.47-.4.53a.72.72 0 0 1-1-.5a5.7 5.7 0 0 1-.17-1.88"/>
  </symbol>
  <symbol id="streamline-check" viewBox="0 0 24 24">
    <g fill="currentColor" fill-rule="evenodd" clip-rule="evenodd"><path d="M23.876 6.947a40 40 0 0 0-.38-5.146a1.7 1.7 0 0 0-.32-.76a2.66 2.66 0 0 0-1.268-.53A60 60 0 0 0 11.855.043c-3.342.007-6.68.234-9.993.68c-.457.05-.89.23-1.249.52c-.41.589-.61 4.376-.61 8.633c0 5.686.37 12.201.72 12.89c.278.324.666.53 1.09.58c2.6.415 5.23.622 7.864.62c3.737.09 7.844 0 10.452-.19a9.2 9.2 0 0 0 2.798-.51c.36-.234.625-.588.75-.999a7.5 7.5 0 0 0 .31-2.118c0-1.26.06-8.114-.11-13.2m-1.069 13.18a7 7 0 0 1-.09 1.33c-.06.33-.13.68-.37.82a6.6 6.6 0 0 1-1.888.319c-2.079.2-5.346.3-8.604.3a69 69 0 0 1-9.633-.45a5 5 0 0 1-.69-.19c-.35-.94-.709-6.995-.799-12.39c-.08-4.068 0-7.695.38-8.235c.07-.1.38-.13.83-.21a76 76 0 0 1 9.922-.52a73 73 0 0 1 8.794.37a5.2 5.2 0 0 1 1.798.4q.1.416.15.84c.12.999.19 2.618.23 4.466c.15 5.057.01 11.892-.03 13.15"/><path d="M18.13 5.229a.34.34 0 0 0-.32.21l-.42.599c-.818 1.15-2.647 3.537-4.376 5.886c-1.229 1.668-2.398 3.307-3.208 4.367q-.366.581-.809 1.109h-.19a3 3 0 0 1-.5-.28a14 14 0 0 1-2.198-2.228c-.23-.28-.36-.59-.59-.39c-.17 0-.34.15-.19.37l.16.23c.535.78 1.13 1.519 1.78 2.208c.357.409.787.748 1.268.999a1.05 1.05 0 0 0 1-.08a13.7 13.7 0 0 0 1.698-1.908c.64-.81 1.4-1.83 2.169-2.918c1.809-2.539 3.687-5.446 4.547-6.805q.324-.467.52-1a.34.34 0 0 0-.34-.37"/></g>
  </symbol>
  <symbol id="streamline-warning" viewBox="0 0 24 24">
    <path fill="currentColor" d="M11.988 5.767a2.07 2.07 0 0 0-2 1.47a5.5 5.5 0 0 0-.24 1.36q.038.961.2 1.91c.15 1 .37 2 .55 3c.28 1.64.39 2 1.1 2.54a1.1 1.1 0 0 0 1.39-.27a4.5 4.5 0 0 0 .76-1.53c.19-.55.36-1.11.52-1.67c.23-.84.43-1.69.62-2.52q.186-.721.26-1.46a2.9 2.9 0 0 0-.16-1.14a3.23 3.23 0 0 0-3-1.69m1.89 4.08c-.14.83-.3 1.67-.48 2.5c-.13.56-.26 1.1-.42 1.64a3.5 3.5 0 0 1-.53 1.28a.41.41 0 0 1-.51.14c-.4-.29-.38-.2-.69-2c-.16-1-.25-2-.34-3a13 13 0 0 1-.07-1.78a3.8 3.8 0 0 1 .15-1.08c.17-.59.8-.69 1.4-.61a1.91 1.91 0 0 1 1.53.94a1.9 1.9 0 0 1 .1.68a9 9 0 0 1-.19 1.29zm-2.09 7.53a2.6 2.6 0 0 0-1.22.46a1.7 1.7 0 0 0-.59 2.05c.106.247.27.463.48.63a2.17 2.17 0 0 0 2 .25a1.84 1.84 0 0 0 1.26-1.58a1.4 1.4 0 0 0-.09-.6a1.68 1.68 0 0 0-1.84-1.21m1.2 1.72a1 1 0 0 1-.77.68a1.1 1.1 0 0 1-1-.16a.57.57 0 0 1-.21-.46a.72.72 0 0 1 .2-.56a1.7 1.7 0 0 1 .74-.45c.58-.14.77-.09 1 .61a.64.64 0 0 1 .04.34"/><path fill="currentColor" d="M23.918 19.637a27 27 0 0 0-.89-3a18.3 18.3 0 0 0-1.3-3.15c-.74-1.49-1.65-2.88-2.43-4.32c-.63-1.17-1.11-2.26-1.74-3.34a13 13 0 0 0-.92-1.39a16.5 16.5 0 0 0-2.47-3.05a2.65 2.65 0 0 0-1.88-.66a2 2 0 0 0-.85.31a7 7 0 0 0-.87.65a10.4 10.4 0 0 0-1.42 1.39c-.62.73-1.16 1.53-1.72 2.33l-2 2.69a42 42 0 0 0-2.23 4a57 57 0 0 0-1.83 4.19c-.27.71-.57 1.4-.83 2.12c-.73 2.1-.81 2.85.35 3.5a8.3 8.3 0 0 0 3 .66l1.1.11c1.81.12 3.62.34 5.44.48c.78.06 1.57.1 2.36.12h1.8c1.38 0 2.76-.13 4.14-.17a11 11 0 0 0 3.84-.46a2.29 2.29 0 0 0 1.35-1.45c.11-.515.11-1.046 0-1.56m-1.09 1.24a1.49 1.49 0 0 1-1.17.94a13.4 13.4 0 0 1-3 .27c-1.38.06-2.76.18-4.14.24h-1.75q-1.15 0-2.31-.09c-1.84-.06-3.66-.24-5.47-.34l-1.05-.09a7.7 7.7 0 0 1-2.69-.53c-.49-.27-.87-.59-.1-2.67c.26-.7.58-1.39.86-2.08c.57-1.4 1.19-2.76 1.88-4.09a40 40 0 0 1 2.27-3.87l2.03-2.57c.56-.77 1.1-1.52 1.71-2.22q.601-.678 1.31-1.24q.368-.33.78-.6a.9.9 0 0 1 .41-.15a2 2 0 0 1 1.46.78q1.036 1.212 1.89 2.56q.619.82 1.1 1.73c.5.93.92 1.88 1.45 2.86c.78 1.43 1.67 2.85 2.42 4.32c.515.944.94 1.935 1.27 2.96c.2.68.59 1.58.81 2.46c.12.464.13.95.03 1.42"/>
  </symbol>
  <symbol id="streamline-archive" viewBox="0 0 24 24">
    <path fill="currentColor" d="M18.364 11.813a.32.32 0 0 0-.28.321v1.523c-.07 1.404-.201 3.128-.211 3.629s0 1.202 0 1.874a2.1 2.1 0 0 1-.29 1.002c-.091.12-.372.18-.752.27a25 25 0 0 1-4.3.482c-1.444.09-2.893.05-4.33-.12a1.9 1.9 0 0 1-.792-.21a1.9 1.9 0 0 1-.45-.743c-.166-.493-.294-1-.382-1.513a35 35 0 0 1-.5-3.007a28 28 0 0 1-.191-3.067a.27.27 0 0 0-.531 0a30 30 0 0 0 .08 3.137c.07 1.003.19 2.085.36 3.107q.105.845.331 1.664c.13.41.348.788.642 1.103c.36.265.787.428 1.233.47c1.5.215 3.018.275 4.53.181a24 24 0 0 0 4.49-.591a2.34 2.34 0 0 0 1.233-.652c.21-.33.34-.703.38-1.092q.075-1.142 0-2.285c0-.501.06-2.225.07-3.618v-1.584a.3.3 0 0 0-.34-.28m1.523-4.321a4.5 4.5 0 0 0-1.864-.39q-1.312.02-2.616.18c-1.764.14-3.498.16-5.242.31c-.751.07-1.513.171-2.265.311c-.751.14-1.303.23-1.904.371q-.642.15-1.293.361q-.428.097-.822.29a.55.55 0 0 0-.29.402q-.038.466 0 .932q.049.677.18 1.343a.27.27 0 0 0 .14.2a.25.25 0 0 0 .291.14a48 48 0 0 1 3.508-.6q1.757-.23 3.528-.261l4.009-.11l3.247.09c.2 0 .551.1.842.11c.244.017.487-.046.692-.18a2.27 2.27 0 0 0 .631-1.755a3.3 3.3 0 0 0-.21-1.172a1.1 1.1 0 0 0-.562-.572m-.37 2.496c0 .09-.762.1-1.003.1h-3.287l-4.01.25q-1.805.098-3.587.392c-1.103.18-2.185.41-3.288.661c0-.3-.08-.621-.11-.942q-.03-.451 0-.902q.953-.226 1.874-.561c.642-.12 1.283-.21 1.925-.31a27 27 0 0 1 2.195-.241c1.743-.11 3.477-.07 5.241-.17c.792 0 1.674-.181 2.526-.161c.493.008.98.11 1.433.3q.05.082.08.17q.095.346.09.703c.012.24-.015.48-.08.711"/><path fill="currentColor" d="M14.385 13.998a7.3 7.3 0 0 1-2.435.441c-.84.127-1.696.1-2.526-.08a.8.8 0 0 1-.341-.36a1.2 1.2 0 0 1-.17-.462l-.06-.711a.3.3 0 0 0-.281-.321a.31.31 0 0 0-.32.27v.852c.03.253.108.498.23.722c.133.242.33.443.57.581a7.7 7.7 0 0 0 2.928.341a7.9 7.9 0 0 0 2.946-.501c.262-.17.462-.42.572-.712a2.7 2.7 0 0 0 .12-1.062q0-.301-.08-.591a.78.78 0 0 0-.331-.401a1.45 1.45 0 0 0-.652-.17a9 9 0 0 0-1.142.06l-1.644.1c-.37 0-.732.1-1.092.17c-.532.1-1.053.23-1.594.36a.26.26 0 0 0-.16.405a.26.26 0 0 0 .27.107c.531-.08 1.053-.17 1.584-.23a9 9 0 0 1 1.002-.07h2.556q.163.005.32.05v.22q.032.32 0 .641a.49.49 0 0 1-.27.351M2.478 12.324c-.3.11-.591.16-.882.271a2.4 2.4 0 0 0-.37.16q-.181.106-.342.24q-.405.288-.761.632a.29.29 0 0 0-.09.371a.29.29 0 0 0 .41.09c.301-.12.602-.18.902-.3q.305-.11.582-.28q.473-.33.852-.763a.28.28 0 0 0 .06-.37a.25.25 0 0 0-.361-.05m21.419.17a6 6 0 0 0-.762-.632a2.4 2.4 0 0 0-.341-.21a2.4 2.4 0 0 0-.37-.16c-.292-.11-.582-.16-.883-.271a.25.25 0 0 0-.36.06a.28.28 0 0 0 .06.37q.38.433.851.763q.277.17.582.28c.3.12.601.18.902.3a.3.3 0 0 0 .32-.5M3.831 7.062a.26.26 0 0 0 0-.37a6 6 0 0 0-.641-.943a3 3 0 0 0-.361-.32a3 3 0 0 0-.401-.27c-.31-.181-.642-.322-1.002-.482a.3.3 0 0 0-.331.501l.772.742c.11.1.21.2.33.29q.166.144.351.261c.29.2.592.35.882.571a.26.26 0 0 0 .401.02m16.748-3.247c-.22.22-.431.421-.631.642q-.125.154-.231.32q-.105.162-.18.341q-.153.438-.24.892a.25.25 0 0 0 .11.35a.27.27 0 0 0 .36-.11c.2-.23.411-.41.602-.65l.21-.301q.091-.154.16-.321c.13-.27.22-.531.341-.812a.303.303 0 0 0-.501-.34zm-9.882.391q.165.471.38.922a.26.26 0 0 0 .512-.09c0-.38.07-.732.05-1.123a4.4 4.4 0 0 0-.09-.621c-.06-.32-.16-.621-.2-.942a.32.32 0 0 0-.292-.31a.3.3 0 0 0-.31.28q-.12.494-.15 1.002a3 3 0 0 0 0 .431q.025.23.1.451"/>
  </symbol>
  <symbol id="streamline-all" viewBox="0 0 24 24">
    <path fill="currentColor" d="M10.485 2.845c.609 0 1.248.14 1.827.13l5.993-.18c.909 0 1.808 0 2.707-.06c.609 0 1.218-.07 1.828-.13a.35.35 0 0 0 .32-.37a.35.35 0 0 0-.37-.31h-1.778c-.89 0-1.778-.11-2.687-.17a29 29 0 0 0-3.066 0c-.999.07-1.998.22-2.997.35c-.559.08-1.178 0-1.767.07a4 4 0 0 0-.84.13a.3.3 0 1 0 .14.58q.344-.055.69-.04m-.09 9.398q.535-.09 1.078-.09h1.698c.56 0 1.339.05 1.998.05c.999 0 1.997-.05 2.996-.07s2.108-.28 3.176-.34a8 8 0 0 1 1.299 0a.35.35 0 0 0 .39-.279a.34.34 0 0 0-.29-.39a8.3 8.3 0 0 0-1.379-.11l-5.693.06c-.849 0-1.688.11-2.527.18c-.569.05-1.148.08-1.718.15a9 9 0 0 0-1.168.23a.3.3 0 0 0-.23.38a.3.3 0 0 0 .37.23m12.815 8.119l-3.527-.36l-1.887-.18c-.64 0-1.279-.07-1.908-.07a22 22 0 0 0-2.567.17c-.66.09-1.348.11-1.997.2a7 7 0 0 0-.9.17a.302.302 0 0 0 .13.59a6 6 0 0 1 .83-.08c.669 0 1.358.05 1.997 0l6.232.16h3.476a.341.341 0 1 0 .07-.68zM3.723 5.122a2.39 2.39 0 0 0 2.227-.86c.295-.415.442-.918.42-1.427A2.567 2.567 0 0 0 2.285.507a2.357 2.357 0 0 0-.65 3.516a3.07 3.07 0 0 0 2.088 1.099m-.89-3.856c.4-.31 2.628-1.338 2.708 1.279c.04.403-.074.806-.32 1.129a1.47 1.47 0 0 1-1.358.35a2 2 0 0 1-1.309-.7a1.388 1.388 0 0 1 .28-2.058m-.689 8.46a3.45 3.45 0 0 0-1.439 1.858a2.8 2.8 0 0 0 .33 2.137a3 3 0 0 0 1.718 1.289q.354.084.72.08q.342-.01.678-.08a3.076 3.076 0 0 0 2.417-2.997a2.827 2.827 0 0 0-4.424-2.287m1.788 4.195a2.5 2.5 0 0 1-.47.05a1.5 1.5 0 0 1-.43-.05c-.445-.118-.83-.4-1.078-.789a1.77 1.77 0 0 1-.3-1.318a2.48 2.48 0 0 1 .93-1.449a1.888 1.888 0 0 1 3.055 1.648a2 2 0 0 1-1.707 1.908m-1.329 4.614a3.6 3.6 0 0 0-1.738 1.718a3.08 3.08 0 0 0-.29 1.898c.096.481.353.915.73 1.229a3.22 3.22 0 0 0 2.617.539A2.78 2.78 0 0 0 6.03 22.32a2.65 2.65 0 0 0 0-1.938c-.999-2.886-3.176-1.967-3.426-1.848M5.181 22a1.82 1.82 0 0 1-1.458.87a2.08 2.08 0 0 1-1.688-.38a1.1 1.1 0 0 1-.4-.77c-.034-.36.017-.722.15-1.058a2.76 2.76 0 0 1 1.159-1.408c1.578-.88 2.247 1.098 2.327 1.378c.145.45.112.94-.09 1.368"/>
  </symbol>
  <symbol id="streamline-folder-open" viewBox="0 0 24 24">
    <g fill="currentColor" fill-rule="evenodd" clip-rule="evenodd"><path d="M19.895 12.392c-1.626-.24-9.599.12-10.277.12c-.898 0-.798.279-.998-.51a4.46 4.46 0 0 0-.619-2.025c-.808-.808-6.166 0-6.825 1.417c-.329.688.39 2.375.61 3.093a51 51 0 0 0 2.234 6.985a.301.301 0 1 0 .549-.25a51 51 0 0 1-1.996-6.904a10 10 0 0 1-.578-2.505c.319-.638 3.173-1.107 3.99-1.097l1.388.06c.24.349.18 1.995.778 2.604c.599.608 4.25.06 8.84.18c.2 0 3.233-.21 3.622.259c.39.469-.279 2.933-.429 3.482c-.339 1.277-.738 4.1-1.357 5.168c-.16.28-.13.46-1.826.6c-2.205.189-3.701-.06-8.191 0l-2.146-.12c-.548 0-1.087-.26-1.177.209c-.13.728 1.157.4 8.89.798c1.48.112 2.97.008 4.42-.31c1.357-.498 1.766-4.13 2.325-6.086c.34-1.157.998-3.562.27-4.49a2.46 2.46 0 0 0-1.497-.678M5.597 8.35c.13.43.509.4.618.15c.21-.458-.14-1.376-.14-1.396s-.339-4.111.01-5.199c.26-.788 2.794-.768 3.623-.778c1.237 0 8.261.26 8.82 1.058c.16.239.08.608 0 .997a47 47 0 0 1-1.177 7.125a.339.339 0 1 0 .658.15a49.6 49.6 0 0 0 1.477-7.175a2.23 2.23 0 0 0-.16-1.696C18.778.698 17.151.608 16.143.448C13.56.08 8.64-.4 6.205.578c-1.057.42-1.077 1.197-1.097 2.255c.028 1.849.192 3.693.489 5.518m17.192-3.033a3.22 3.22 0 0 0-1.816-1.228a.3.3 0 0 0-.25.54c1.647.937 1.178 1.266.918 1.835a28.4 28.4 0 0 1-1.786 4.12a.34.34 0 0 0 .589.34c.409-.758 3.053-4.24 2.345-5.607"/><path d="M16.523 5.258a.4.4 0 0 0 .09-.689c-.18-.17-.62-.22-1.906-.399a17 17 0 0 0-4.191-.06c-1.637 0-1.716 0-1.996.14a.29.29 0 0 0 .17.489l.569.08c1.774.34 3.586.44 5.388.299c.07.01 1.796.18 1.876.14m-.469 2.554a4.6 4.6 0 0 0-1.906-.449a14.8 14.8 0 0 0-3.053-.19c-1.098.08-2.904-.19-2.675.53a.3.3 0 0 0 .38.189c.538-.13.738.38 5.278.439a4.6 4.6 0 0 1 1.616.05a.339.339 0 1 0 .36-.569M1.945 6.036q.432 1.039.758 2.115a.3.3 0 0 0 .599-.06a18 18 0 0 0-.49-3.103c-.129-.608-.528-.997 1.527-1.706a.34.34 0 0 0-.16-.658c-2.683.369-2.973 1.367-2.234 3.412"/></g>
  </symbol>
  <symbol id="streamline-pencil" viewBox="0 0 24 24">
    <path fill="currentColor" fill-rule="evenodd" d="M23.957 3.233a3.17 3.17 0 0 0-1.941-2.15a3.9 3.9 0 0 0-2.81-.12a3 3 0 0 0-1 .68a4.8 4.8 0 0 0-1.001 1.43a3.3 3.3 0 0 0-.3.84a.34.34 0 0 0 .22.41a.3.3 0 0 0 .39-.18l.31-.73a4.5 4.5 0 0 1 .75-1a2.26 2.26 0 0 1 .95-.53a3 3 0 0 1 2 .26a2.2 2.2 0 0 1 1.411 1.32c.15.514.178 1.055.08 1.58a6 6 0 0 1-.52 1.531l-.13-.07c-1.06-.54-3.58-1.81-4.35-2.24a.35.35 0 0 0-.471.14a.35.35 0 0 0 .14.47l4.441 2.42c-.09.2-.24.5-.43.87c-1.22 2.421-4.141 7.863-5.181 9.673a11 11 0 0 0-1.36-1.15c-.24-.16-.5-.32-.75-.46a6.5 6.5 0 0 0-.811-.36a8.7 8.7 0 0 0-1.58-.42q.045-.186.12-.36c.92-2.131 3.32-6.832 4.42-9.003c.25-.48.43-.83.51-1c.2-.38-.41-.48-.42-.47a8 8 0 0 0-.66 1.16c-1.21 2.19-3.81 6.792-4.8 8.892c-.23.4-.38.842-.44 1.3c.07.42.51 3.391.8 4.582c.052.318.202.611.43.84c.182.104.39.153.6.14a4.3 4.3 0 0 0 1.33-.39a12.8 12.8 0 0 0 3.07-2c.25-.28 3.262-6.072 4.912-9.473c.49-1 .86-1.79 1-2.17a18 18 0 0 0 .93-2.331a4.7 4.7 0 0 0 .14-1.93M12.824 20.348h-.15s-.68-3.301-.84-4.191c.47.23 1 .54 1.51.84c.31.18.64.34 1 .51s.67.31 1 .48l.78.47c-.566.469-1.18.878-1.83 1.22a7.6 7.6 0 0 1-1.47.67m-.81 2.171a16 16 0 0 1-1.81-.5a5.7 5.7 0 0 1-1.071-.49a1.25 1.25 0 0 1-.58-.74a3.2 3.2 0 0 1 .19-1.3a3 3 0 0 0 0-1.891a1.83 1.83 0 0 0-.79-.82a3.4 3.4 0 0 0-1.37-.42a12.6 12.6 0 0 0-2.571.22c-1.26.256-2.503.59-3.721 1a.311.311 0 0 0-.03.618q.06.007.12-.008c1-.21 2-.42 3.09-.56a12.8 12.8 0 0 1 3.001-.08c.248.027.488.098.71.21c.18.09.37.18.43.33a2 2 0 0 1 0 1.2a3.8 3.8 0 0 0-.08 1.79a2.1 2.1 0 0 0 1.09 1.281q.63.316 1.311.49q.96.252 1.94.39a.35.35 0 0 0 .4-.28a.35.35 0 0 0-.26-.44" clip-rule="evenodd"/>
  </symbol>
  <symbol id="streamline-x" viewBox="0 0 24 24">
    <path fill="currentColor" fill-rule="evenodd" d="M19.553 11.716c.66-.57 1.379-1.238 2.048-1.928q.672-.677 1.26-1.429c.39-.404.726-.857.998-1.349c.164-.344.186-.739.06-1.099a3.7 3.7 0 0 0-.699-1.129q-.589-.63-1.239-1.199c-.55-.51-1.099-1.368-1.738-1.998a3.6 3.6 0 0 0-1.14-.79a1.5 1.5 0 0 0-.919 0a5.7 5.7 0 0 0-1.199.62q-.942.565-1.778 1.28a24 24 0 0 0-2.218 2.297c-1.569 1.779-.34 1.929-2.558-.55L7.993 1.926A10.6 10.6 0 0 0 6.834.785A2 2 0 0 0 4.666.667q-.517.282-1 .62q-.39.236-.738.529l-.64.61A8 8 0 0 0 1 4.352A3.6 3.6 0 0 0 .6 5.93c.018.213.087.419.2.6q.34.446.74.84l3.766 3.856a.34.34 0 0 0 .48 0a.36.36 0 0 0 0-.49L2.108 6.861c-.16-.19-.4-.4-.57-.64a.6.6 0 0 1-.15-.33c.032-.418.155-.823.36-1.189c.3-.62.687-1.196 1.15-1.708a6.4 6.4 0 0 1 2.707-1.699a1.05 1.05 0 0 1 .68.23q.535.496.999 1.06l2.298 2.487c.19.22.859 1.24 1.359 1.759c.202.248.485.418.799.48c.275 0 .542-.092.76-.26q.685-.628 1.258-1.36a24 24 0 0 1 1.789-1.808a12.5 12.5 0 0 1 1.998-1.459c1.319-.789 1.688 0 1.768 0c.63.63 1.19 1.5 1.739 1.999c.34.32.77.7 1.129 1.109c.194.215.349.462.46.73c.05.139-.08.269-.18.409c-.21.3-.48.58-.66.8q-.556.689-1.179 1.318c-.64.66-1.339 1.309-1.998 1.858c-.27.23-.74.52-1.1.82c-.214.168-.4.37-.549.6a.82.82 0 0 0 0 .838q.294.39.67.7c.54.61 1.149 1.189 1.708 1.808q.34.368.64.77q.698.85 1.239 1.808c.204.349.314.745.32 1.149c0 .13-.18.19-.31.29s-.38.26-.52.36a24 24 0 0 0-1.938 1.698q-.38.33-.79.62c-.559.38-1.199.12-1.848-.27A21.3 21.3 0 0 1 13.22 19.3q-.495-.592-1.05-1.13a1.4 1.4 0 0 0-.999-.289a2.8 2.8 0 0 0-.849.31q-.747.45-1.429.999c-.56.4-1.159.81-1.778 1.189c-.62.38-1.12.82-1.779 1.149l-1.338.78a4 4 0 0 1-.5-.47c-.4-.47-.81-1.07-1-1.26A11.4 11.4 0 0 1 1.24 19.05a2 2 0 0 1-.36-.999c.023-.204.095-.4.21-.57q.361-.482.78-.919a14 14 0 0 1 1.768-1.848a17 17 0 0 1 2.058-1.559a.39.39 0 0 0-.11-.736a.4.4 0 0 0-.31.087q-1.149.694-2.178 1.558a15 15 0 0 0-1.888 1.919a12 12 0 0 0-.85.999a2.1 2.1 0 0 0-.359.999c-.003.552.16 1.092.47 1.549q.593.887 1.328 1.658q.62.883 1.34 1.689c.197.21.456.353.739.41a1.5 1.5 0 0 0 .59-.13c.439-.19.998-.62 1.328-.76c.64-.32 1.289-.68 1.928-1.069c.64-.39 1.28-.8 1.859-1.209c.3-.21.72-.54 1.149-.79c.2-.139.429-.234.67-.279c.12 0 .209.09.309.19c.32.31.6.76.84 1a16.4 16.4 0 0 0 3.716 3.056a2.46 2.46 0 0 0 2.488-.08q.473-.325.91-.699a24 24 0 0 1 1.867-1.598a5.6 5.6 0 0 0 1-.78a1.38 1.38 0 0 0 .36-.81a3.5 3.5 0 0 0-.45-1.798a13 13 0 0 0-1.34-1.998a10 10 0 0 0-.719-.86c-.55-.619-1.159-1.188-1.688-1.798l-.29-.27c.39-.349.88-.619 1.15-.889" clip-rule="evenodd"/>
  </symbol>
  <symbol id="streamline-arrow-left" viewBox="0 0 24 24">
    <g fill="currentColor" fill-rule="evenodd" clip-rule="evenodd"><path d="m6.192 19.9l-1.4-.91a13 13 0 0 1-1.38-1.07a15 15 0 0 1-1.261-1.221a8 8 0 0 1-.58-.59c-.39-.46-.28-.41-.09-.6q.244-.278.52-.52l2.5-2.592l.791-.75a.34.34 0 1 0 0-.68a.9.9 0 0 0-.43.13q-.48.307-.91.68l-2.801 2.29c-.357.257-.67.567-.93.921a1.3 1.3 0 0 0-.21.89c.054.263.163.512.32.73q.403.548.91 1.001q.691.645 1.45 1.21q.772.554 1.61 1.001c2.091 1.15 1.921 1.38 2.232 1.07a.44.44 0 0 0 .07-.57a2 2 0 0 0-.41-.42"/><path d="M23.709 7.676a6.23 6.23 0 0 0-4.542-4.082a18 18 0 0 0-2.5-.37c-1.581-.15-3.302-.24-3.662-.24a.39.39 0 0 0-.39.39a.38.38 0 0 0 .39.39c.39 0 2.06.14 3.601.34q1.174.135 2.321.42a5.21 5.21 0 0 1 3.641 3.462a5.6 5.6 0 0 1-1 5.002a5.5 5.5 0 0 1-1.84 1.46a12 12 0 0 1-2.342.89c-1.18.34-2.389.571-3.61.69q-1.857.189-3.722.12c-1.05 0-4.422-.39-5.842-.57l-.57-.08a.36.36 0 0 0-.27 0s-.32.56.15.66l.6.1c1.43.24 4.821.751 5.892.831c1.284.106 2.574.123 3.861.05a21.6 21.6 0 0 0 3.852-.59a12 12 0 0 0 3.11-1.24a6.1 6.1 0 0 0 1.771-1.551a6.78 6.78 0 0 0 1.1-6.082"/></g>
  </symbol>
  <symbol id="streamline-upload" viewBox="0 0 24 24">
    <path fill="currentColor" fill-rule="evenodd" d="M23.267 2.594c-.42-1.169-1.728-1.109-2.937-.999c-.56.08-1.24-.24-1.29.21a.29.29 0 0 0 .18.31q.586.09 1.18.1c.779-.07 1.918-.17 2.148.58c.85 2.817.12 5.514.33 16.475c.075.764.075 1.534 0 2.298c-.06 0-.21.07-.37.08c-.52 0-2.838-.1-2.878-.08a.33.33 0 0 0 0 .62c.08 0 2.538.22 2.948.22a1.45 1.45 0 0 0 .859-.23c.53-.51.33-2.338.34-2.908c.21-9.732.55-13.778-.51-16.676M3.663 1.645c-1.218-.16-2.517-.22-2.937 1c-1.04 2.817-.72 6.434-.51 16.675c0 .59-.19 2.408.34 2.908c.255.166.556.246.86.23c.409 0 2.867-.18 2.997-.22a.33.33 0 0 0 0-.62s-2.358.11-2.878.08c-.16 0-.31-.11-.37-.08a12.5 12.5 0 0 1 0-2.298c.16-10.9-.579-13.648.28-16.476c.23-.75 1.37-.65 2.149-.58q.592-.01 1.179-.1a.26.26 0 0 0 .17-.31c-.04-.449-.73-.129-1.28-.209m12.64 8.363a16.2 16.2 0 0 0-2.468-3.997c-.42-.48-.8-1.149-1.699-1.089c-2.228.17-7.094 5.795-5.765 7.404c.63.76 3.138-.92 3.797-1.589c.11 1.09.72 7.404 1 8.194a.27.27 0 0 0 .509-.16c-.29-.93-.68-8.073-.77-8.693s-.769-.59-1.189-.06a6.9 6.9 0 0 1-2.627 1.589c.017-.23.082-.455.19-.66c.699-1.628 4.226-5.805 5.295-4.826a17.5 17.5 0 0 1 3.327 5.246c-1.289-.54-2.438-1.998-2.937-1.998a.49.49 0 0 0-.4.51c.13 1.268.28-.88-.75 8.992a.31.31 0 0 0 .61 0c0 .07 1.2-6.215 1-8.183c.679.569 1.638 1.558 2.737 1.588c.48 0 .8-.34.59-1.119a11 11 0 0 0-.45-1.149" clip-rule="evenodd"/>
  </symbol>
  <symbol id="streamline-clipboard" viewBox="0 0 24 24">
    <path fill="currentColor" d="M23.402 13.377v-.73a1.3 1.3 0 0 0-.13-.409a.8.8 0 0 0-.52-.36a4 4 0 0 0-.948 0a.34.34 0 0 0 0 .68h.579c.11 0 .22 0 .26.06v.81a29 29 0 0 1-.4 5.734a7.3 7.3 0 0 1-1.189 3.347c-.258.153-.55.239-.85.25q-1.352.19-2.717.17a22.6 22.6 0 0 1-4.676-.4a1.7 1.7 0 0 1-.45-.21c.29-.909 1-2.297 1.38-3.676a6.7 6.7 0 0 0 .28-1.999a27 27 0 0 1 .18-3.536v-.16c1.784-.3 3.586-.484 5.394-.55c.54 0 .81 0 .79-.24s0-.4-.24-.39h-.58c-1.249 0-3.996.14-5.195.32a2.3 2.3 0 0 0-.72.2a2.06 2.06 0 0 0-.39 1.07a32 32 0 0 0-.259 3.296a5.9 5.9 0 0 1-.3 1.649c-.48 1.559-1.348 3.137-1.568 3.997a.77.77 0 0 0 .31.839c.91.465 1.915.718 2.937.74a25.6 25.6 0 0 0 5.775-.09a3.17 3.17 0 0 0 1.609-.6c.22-.23.999-1.33 1.358-3.937c.282-1.945.375-3.912.28-5.875"/><path fill="currentColor" d="M18.586 15.286a4.4 4.4 0 0 0-.63 0c-.579.07-1.078.2-1.468.26a.3.3 0 1 0 0 .599q.838.172 1.689.25q.499.036.999 0c.58 0 1.099-.14 1.489-.15a.35.35 0 0 0 .06-.69q-.747-.165-1.51-.24c-.229-.01-.409-.03-.629-.03m-.279 3.877h-1.14c-1.688.24-1.508.11-1.588.17s-.25.21-.12.43s.13.17.65.29l1.059.2q.58.03 1.159 0a12 12 0 0 0 1.748-.31a.34.34 0 0 0 .3-.37a.33.33 0 0 0-.37-.31c-.57.01-1.129-.08-1.698-.1M9.094 20.77c-1.518 0-3.097-.08-4.406-.169a16.5 16.5 0 0 1-2.278-.28c-.15 0-.37 0-.33-.1a1.3 1.3 0 0 1-.08-.49c0-.319 0-.639-.05-.838c-.05-.73-.11-3.777-.23-6.805c-.13-3.227-.329-6.444-.309-6.764v-.28a2 2 0 0 1 1-.37c.319 0 .649-.05.998-.06a2.54 2.54 0 0 0-.08 1.62a.55.55 0 0 0 .51.489h4.866c1.309 0 2.558 0 3.257-.07a.31.31 0 0 0 .29-.32a.3.3 0 0 0-.38-.29c-.55 0-1.429 0-2.398-.07c-1.908-.09-4.186-.26-5.165-.33v-.299a4 4 0 0 1 .14-.48q.062-.188.18-.35c.15-.202.35-.364.579-.469a6.4 6.4 0 0 1 1.409-.43l.29-.06a.58.58 0 0 0 .449-.689l-.12-.66a.83.83 0 0 1 .31-.659c.264-.21.57-.36.9-.44a.9.9 0 0 1 .479 0c.175.058.335.154.47.28c.178.183.302.411.359.66q.07.442.06.89a.44.44 0 0 0 .38.439q.508.042.999.18q.473.135.889.4c.208.139.36.348.43.589q.124.435.12.89a.35.35 0 0 0 .197.375a.35.35 0 0 0 .492-.376a3.5 3.5 0 0 0-.19-1.319a1.7 1.7 0 0 0-.62-.81a4.4 4.4 0 0 0-1.058-.529a5 5 0 0 0-.74-.2a3.4 3.4 0 0 0-.1-.999a2.35 2.35 0 0 0-.47-.849a2 2 0 0 0-.859-.6a1.85 1.85 0 0 0-1.099-.08a3.1 3.1 0 0 0-1.588.87c-.32.354-.497.812-.5 1.289l.05.34a7 7 0 0 0-1.459.5c-.4.196-.744.492-.999.858v.08a11.5 11.5 0 0 0-1.688.06c-.36.055-.702.192-1 .4a.62.62 0 0 0-.23.3a2 2 0 0 0-.17.5c0 .319-.09 3.586 0 6.883c.06 3.048.23 6.105.29 6.844q-.006.654.11 1.3c.057.26.185.498.37.689a3.56 3.56 0 0 0 1.739.44c1.458.11 3.776.12 5.994.05a.34.34 0 0 0 .33-.34a.33.33 0 0 0-.34-.34M14.23 4.255c.207.051.404.14.58.26c.52.35.33.42.33.69v2.058c0 .789.15 1.678.22 2.657a.3.3 0 0 0 .599 0c.11-.799.22-1.548.28-2.238v-.999a12 12 0 0 0-.09-1.639a1.46 1.46 0 0 0-.16-.689a2.5 2.5 0 0 0-.73-.54c-.27-.13-.56-.207-.859-.23a.34.34 0 0 0-.4.28a.35.35 0 0 0 .23.39"/>
  </symbol>
  <symbol id="streamline-mail" viewBox="0 0 24 24">
    <path fill="currentColor" d="M23.71 17.503a.39.39 0 0 0-.551 0a17.6 17.6 0 0 1-3.624 3.223a13.9 13.9 0 0 1-4.404 1.882a17.8 17.8 0 0 1-4.215.43a16 16 0 0 1-4.164-.6a7.63 7.63 0 0 1-4.434-3.003a7.4 7.4 0 0 1-.851-5.266c.47-3 1.802-5.8 3.834-8.058a14 14 0 0 1 7.617-4.515a11.8 11.8 0 0 1 4.635-.06a5.7 5.7 0 0 1 3.674 2.283a5.58 5.58 0 0 1 .92 3.814a12.26 12.26 0 0 1-2.572 5.735a10 10 0 0 1-1.671 1.862c-.35.26-.711.48-1.072.35c-.6-.22-.74-.8-.77-1.45c.063-1.118.245-2.225.54-3.304c.071-.206.089-.426.05-.64a.57.57 0 0 0-1.08-.121c-.161.23-.581 1.151-.892 1.722a12 12 0 0 1-3.924 4.464a2.56 2.56 0 0 1-3.273-.32a2.16 2.16 0 0 1-.62-1.451c-.044-.6.01-1.2.16-1.782a10 10 0 0 1 1.811-3.684a7.76 7.76 0 0 1 3.194-2.523a4.35 4.35 0 0 1 2.572-.3a1.93 1.93 0 0 1 1.432 1.732a.34.34 0 0 0 .39.3a.35.35 0 0 0 .3-.39a2.58 2.58 0 0 0-1.381-2.112a4.56 4.56 0 0 0-3.644 0a8.56 8.56 0 0 0-3.523 2.792a10.9 10.9 0 0 0-2.002 4.005a6.2 6.2 0 0 0-.15 2.502c.096.619.387 1.19.83 1.632a3.484 3.484 0 0 0 4.445.53a11.7 11.7 0 0 0 3.623-3.563a5 5 0 0 0 .05 1.291a2.29 2.29 0 0 0 1.462 1.862a2.11 2.11 0 0 0 1.822-.21a9 9 0 0 0 2.392-2.393a13.6 13.6 0 0 0 2.863-6.366a6.85 6.85 0 0 0-1.14-4.705A6.65 6.65 0 0 0 18.864.515a12.3 12.3 0 0 0-6.207-.22A15.28 15.28 0 0 0 4.36 5.3a16.86 16.86 0 0 0-4.044 8.72a8.5 8.5 0 0 0 1.09 6.005a8.74 8.74 0 0 0 5.066 3.394a17.2 17.2 0 0 0 4.434.58a18.5 18.5 0 0 0 4.435-.5a14.8 14.8 0 0 0 4.695-2.032a18.4 18.4 0 0 0 3.724-3.444a.4.4 0 0 0-.05-.52"/>
  </symbol>
  <symbol id="streamline-info" viewBox="0 0 24 24">
    <g fill="currentColor" fill-rule="evenodd" clip-rule="evenodd"><path d="M23.921 17.097a2 2 0 0 0-.46-1.111a2 2 0 0 0-1.001-.49a10.6 10.6 0 0 0-2.153-.12H13.45c-2.543 0-4.905-.231-7.368-.321H4.209a12 12 0 0 0-2.653.08a2.37 2.37 0 0 0-1.182.62a1.66 1.66 0 0 0-.35 1.002a10 10 0 0 0 .05 1.902c0 .25 0 .57.05.921c0 1.252-.07 2.924 0 3.895a.3.3 0 0 0 .33.27a.29.29 0 0 0 .27-.32c-.07-1.002.08-2.613.1-3.845a8 8 0 0 0 0-1.001a10 10 0 0 1 0-1.482a1.3 1.3 0 0 1 .15-.7a1.68 1.68 0 0 1 1.052-.411q1.065-.04 2.122.08c2.233.06 4.315.27 6.458.39c.911.05 1.842.08 2.803.08h2.743c1.332 0 2.663-.05 4.135-.1a14 14 0 0 1 1.702 0c.291.001.576.084.821.24c.187.25.288.551.29.862q.061.88 0 1.762c0 .76-.16 2.002-.23 3.003q-.04.656 0 1.312a.35.35 0 0 0 .489.3a.33.33 0 0 0 .192-.32c0-.31 0-.751.08-1.232c.1-1 .27-2.222.32-3.003c.074-.753.064-1.512-.03-2.263m-7.819-2.873a.3.3 0 0 0 .31.3a.31.31 0 0 0 .301-.3a1.44 1.44 0 0 1 .821-1.121a3 3 0 0 1 .851-.3a2.8 2.8 0 0 1 1.311-.06c.325.06.622.222.851.46c.26.261.456.58.571.93a.33.33 0 0 0 .277.26a.3.3 0 0 0 .134-.009a.33.33 0 0 0 .25-.4a3 3 0 0 0-.55-1.352a2.6 2.6 0 0 0-1.242-1.001a3.5 3.5 0 0 0-.731-.12v-.14c0-.2-.07-.4-.12-.731a.31.31 0 0 0-.428-.267a.3.3 0 0 0-.183.287c0 .34-.07.54-.07.76a1 1 0 0 0 0 .15a3.3 3.3 0 0 0-1.071.381a2.3 2.3 0 0 0-1.282 2.273m-3.434-3.594a4.7 4.7 0 0 0-1.702-1.722a5 5 0 0 0-1.241-.53c.398-.195.768-.44 1.101-.732a3.44 3.44 0 0 0 1.252-2.002a2.4 2.4 0 0 0-.08-1.001a3 3 0 0 0-.13-.39c-.21-.26-.892-.22-.782.06c0 .11.08.21.11.33c.06.267.06.544 0 .81a2.63 2.63 0 0 1-1.07 1.322a3.6 3.6 0 0 1-1.582.741a2.9 2.9 0 0 1-2.003-.45a2.09 2.09 0 0 1-1-1.722a4.4 4.4 0 0 1 0-.631c.06-.46-.511-.46-.662-.13c-.08.235-.12.482-.12.73a2.88 2.88 0 0 0 1.202 2.664q.359.266.77.44a5.6 5.6 0 0 0-1.21.56a4.535 4.535 0 0 0-2.314 4.766a.304.304 0 1 0 .601-.09A3.79 3.79 0 0 1 6.031 9.87a5 5 0 0 1 2.212-.54c.76-.02 1.513.16 2.183.52a3.62 3.62 0 0 1 1.692 1.682c.346.801.563 1.653.64 2.523a.33.33 0 0 0 .37.31a.35.35 0 0 0 .311-.37a7.7 7.7 0 0 0-.77-3.364"/><path d="M5.89 4.242h2.804c.4 0 1.882-.11 2.282-.18a1.1 1.1 0 0 0 1.002-.89q.14-.393.21-.802c.11-.83.14-1.451-.17-1.812a1.6 1.6 0 0 0-1.262-.5h-.88l-1.843.16c-2.963.3-3.074.28-3.074.27a.3.3 0 0 0-.2.36q.063.353.08.711v1.092q-.03.375 0 .75a.86.86 0 0 0 1.052.841M5.6 2.631c0-.38 0-.761-.1-1.142v-.32l2.643-.1h1.732l.801.06c.25 0 .4 0 .47.14s0 .11 0 .18q-.033.389-.11.771q-.031.226-.11.44a.6.6 0 0 1-.15.26l-1.001.121l-2.923.29a5 5 0 0 1-.701 0a.86.86 0 0 1-.48-.13a.25.25 0 0 1 0-.15c-.07-.08-.06-.3-.07-.42m9.861 4.965c.337.255.708.464 1.1.621q.561.223 1.152.34a4.655 4.655 0 0 0 5.206-2.583a4.09 4.09 0 0 0 0-3.724C21.71.138 18.976-.143 17.063.818a5.45 5.45 0 0 0-2.362 2.433a4.26 4.26 0 0 0-.45 2.253a3.07 3.07 0 0 0 1.21 2.092m.13-3.954a4.5 4.5 0 0 1 1.852-2.143a3.294 3.294 0 0 1 4.695 1.132a3.2 3.2 0 0 1-.16 2.893a3.7 3.7 0 0 1-1.722 1.642a3.57 3.57 0 0 1-2.283.26a6.4 6.4 0 0 1-1-.28a3.2 3.2 0 0 1-.832-.46a2 2 0 0 1-.84-1.322c-.061-.59.04-1.185.29-1.722"/><path d="M19.056 3.862a.31.31 0 0 0-.601.11v1.071q.032.37.12.731a.342.342 0 1 0 .68-.08v-.901a6.4 6.4 0 0 0-.2-.931m-.59-.821a.69.69 0 0 0 .771-.23c.17-.33-.1-.661-.42-.781a.54.54 0 0 0-.431 0a.56.56 0 0 0 .08 1.011"/></g>
  </symbol>
  <symbol id="streamline-key" viewBox="0 0 24 24">
    <path fill="currentColor" fill-rule="evenodd" d="M6.907 17.681a2.2 2.2 0 0 0-1.148-.759a2.395 2.395 0 0 0-2.996 1.997a2.33 2.33 0 0 0 1.768 2.507a2.296 2.296 0 0 0 2.696-1.208a3 3 0 0 0 .17-.44a2.56 2.56 0 0 0-.49-2.097m-.09 1.868q-.066.163-.15.32a1.56 1.56 0 0 1-1.867.668a1.42 1.42 0 0 1-.998-1.528a1.45 1.45 0 0 1 .609-.998a1.6 1.6 0 0 1 1.198-.32c.32.047.614.198.839.43c.699.729.43 1.288.37 1.428" clip-rule="evenodd"/><path fill="currentColor" fill-rule="evenodd" d="M19.1 8.884c-.11-.5-.42-1.618-.53-1.997q.281-.925.44-1.877a4 4 0 0 0 0-1.508a.51.51 0 0 0-.62-.37l-.359.1c-.839.27-2.906.999-3.115 1.149a32 32 0 0 0-2.697 2.795c-1.807 1.998-4.124 4.664-5.621 6.361a5.66 5.66 0 0 0-4.244.919a5.21 5.21 0 0 0-2.317 3.735a4.92 4.92 0 0 0 1.198 3.864a5.63 5.63 0 0 0 3.605 1.827a.27.27 0 0 0 .285-.333a.25.25 0 0 0-.225-.186a5.07 5.07 0 0 1-3.185-1.697a4.25 4.25 0 0 1-.999-3.396a4.5 4.5 0 0 1 2.047-3.165a4.77 4.77 0 0 1 3.695-.709h.16a.43.43 0 0 0 .409-.08c1.518-1.667 3.994-4.403 5.881-6.45a35 35 0 0 1 2.477-2.597c.18-.11 1.757-.679 2.646-.998c0 .18 0 .38-.07.569a14 14 0 0 1-.42 1.847a.6.6 0 0 0 0 .29s.37 1.268.53 1.937l-.06.09h-1.628a.85.85 0 0 0-.529.21a1 1 0 0 0-.18.918q.175.621.42 1.218c0 .09.06.21.08.3a1 1 0 0 1-.2.06a11 11 0 0 1-1.448-.13a2 2 0 0 0-.31 0a.43.43 0 0 0-.409.32a1.1 1.1 0 0 0 0 .439c.09.44.34 1.378.42 1.917a3 3 0 0 1-.54-.11c-.739-.2-1.517-.559-1.657-.549a1 1 0 0 0-.51.31c-.429.42-1.308 1.388-2.057 2.227a.38.38 0 0 0 0 .429q.248.403.41.849q.17.428.27.878l.07.74a3.8 3.8 0 0 1-.19.958a5.6 5.6 0 0 1-.39.919a5.1 5.1 0 0 1-1.178 1.458a4.3 4.3 0 0 1-1.638.868a.301.301 0 0 0-.068.551a.3.3 0 0 0 .228.028a5.1 5.1 0 0 0 1.877-.998a5.7 5.7 0 0 0 1.348-1.618q.276-.478.46-.998a4.7 4.7 0 0 0 .19-1.209l-.07-.778a7 7 0 0 0-.6-1.748c.7-.759 1.468-1.588 1.868-1.997l.06-.05l.14.05q.726.326 1.497.53c.328.084.671.084.999 0a.48.48 0 0 0 .25-.24a1.1 1.1 0 0 0 0-.46c0-.41-.23-1.218-.35-1.787c.26 0 .59.08.889.1a1.68 1.68 0 0 0 1.308-.33a1 1 0 0 0 .11-.889c-.08-.35-.28-.798-.4-1.188a1.3 1.3 0 0 1-.06-.25h1.698a1.05 1.05 0 0 0 .819-.459a1 1 0 0 0 .09-.609" clip-rule="evenodd"/><path fill="currentColor" d="M11.44 5.11c.22 0 .58-1.169 1.329-1.838s1.358-.649 1.398-.939c.19-1.168-1.798-.26-2.277.48c-.48.739-.729 2.217-.45 2.296M9.903 4.58a.37.37 0 0 0 .26-.34a7.2 7.2 0 0 1 .309-2.296C11.032.906 12.389.516 12.299.246c-.16-.519-2.216.61-2.576 1.868c-.28.938-.14 2.526.18 2.466m10.105 6.141c-.14-.16.68-1.118.839-2.107c.19-1.168-.18-1.497 0-1.687c.889-.779 1.188 1.378.829 2.177c-.36.799-1.518 1.837-1.668 1.617m1.199 1.029a.38.38 0 0 1 .15-.39c.449-.369 1.427-.888 1.767-1.507c.579-.999.17-2.387.45-2.457c.518-.13.678 2.197-.18 3.176c-.65.749-2.078 1.428-2.188 1.178"/>
  </symbol>
  <symbol id="streamline-shield" viewBox="0 0 24 24">
    <path fill="currentColor" d="M8.201 4.97a1.1 1.1 0 0 0-.29-.51a4.7 4.7 0 0 0-.91-.84a1.24 1.24 0 0 0 .38-.53a1.52 1.52 0 0 0-.38-1.57A1.74 1.74 0 0 0 5.493.89a1.67 1.67 0 0 0-1.34 1.82a1.69 1.69 0 0 0 2.2 1.32c.25.3.82.91.9 1c.27.29 1.15.53.95-.06m-1.61-2.12a.7.7 0 0 1-.19.32a.78.78 0 0 1-1.399-.52a.74.74 0 0 1 1.29-.47a.74.74 0 0 1 .3.67m1.737 14.946c-.21.28-.39.58-.58.88s-.38.59-.59.88a1.6 1.6 0 0 0-1-.18a1.65 1.65 0 0 0-1.339 1.809c.24 1.73 2.67 1.71 3.21.38a1.54 1.54 0 0 0-.27-1.54q.511-.396.92-.9q.344-.427.609-.91c.15-.26.18-.34.31-.599a.5.5 0 0 0-.71-.37a5 5 0 0 0-.56.55m-1 3.529a.79.79 0 0 1-1.559-.2a.74.74 0 0 1 1.23-.46a.71.71 0 0 1 .29.66zM17.679 6.729a2.8 2.8 0 0 0-.23-1a.77.77 0 0 0-.64-.36c-.52-.06-.48-.25-1.12.22a1.6 1.6 0 0 0-.54.6q-.308.12-.64.12A1.3 1.3 0 0 1 14 6.2a3.2 3.2 0 0 1-.829-.81a1.3 1.3 0 0 0-.82-.42a.92.92 0 0 0-.71.25c-.22.19-.42.62-.88.9a1.7 1.7 0 0 1-.82.23a2.6 2.6 0 0 1-.999-.15a2.12 2.12 0 0 0-1.49-.63a.55.55 0 0 0-.55.38a3.4 3.4 0 0 0-.29 1.08q-.045.765 0 1.53c0 .41.08 1.999.24 3.629q.101 1.227.37 2.429a4 4 0 0 0 1.45 1.75c.964.495 1.967.91 3 1.239a.28.28 0 0 0 .33-.328a.27.27 0 0 0-.22-.212c-1.64-.35-3.4-1.36-3.87-2.67a19 19 0 0 1-.26-2.318c-.1-1.58-.1-3.19-.11-3.59q-.045-.704 0-1.41a2.7 2.7 0 0 1 .13-.579c.66.464 1.428.75 2.23.83a2.66 2.66 0 0 0 1.37-.3a3.3 3.3 0 0 0 .87-.82s.07-.12.11-.16q.204.145.35.35c.241.308.544.563.889.75a2.1 2.1 0 0 0 1 .22a2.84 2.84 0 0 0 1.34-.34q.382-.207.73-.47q.113.369.179.75c0 .54.05 1.08.05 1.26s0 1.949-.14 3.609c-.06.9-.13 1.779-.22 2.339a4.07 4.07 0 0 1-1.62 1.71a6.3 6.3 0 0 1-2.359.88a.3.3 0 0 0-.27.349a.31.31 0 0 0 .35.27a16.5 16.5 0 0 0 2.64-.9a4.9 4.9 0 0 0 1.999-2a.2.2 0 0 0 0-.09c.11-.57.21-1.489.3-2.449c.15-1.69.25-3.479.26-3.659s.01-1.21-.05-1.9m.619 13.946a1.73 1.73 0 0 0-1.54-.65h-.1c-.14-.35-.26-.7-.4-1.06a4 4 0 0 0-.21-.49c-.08-.16-.16-.32-.25-.479a6 6 0 0 0-.36-.54c-.17-.33-.74 0-.74.29q.063.345.17.68q.095.261.22.51q.13.253.29.49q.31.468.67.9a1.57 1.57 0 0 0-.63 1.479c.21 1.61 2.12 1.51 2.82.91c.168-.143.299-.325.38-.53a1.55 1.55 0 0 0-.32-1.51m-.44 1.35a.7.7 0 0 1-.19.33a.78.78 0 0 1-1.37-.52a.72.72 0 0 1 .66-.71a.71.71 0 0 1 .62.24a.73.73 0 0 1 .28.66M19.558 2.03a1.76 1.76 0 0 0-1.56-.63a1.66 1.66 0 0 0-1.349 1.82c.04.257.136.503.28.72q-.346.198-.64.47a.7.7 0 0 0-.22.31c0 .17.33.45.72.18c.18-.17.51-.35.66-.52a2.13 2.13 0 0 0 2-.25a1.4 1.4 0 0 0 .37-.53a1.53 1.53 0 0 0-.26-1.57m-.45 1.33a.7.7 0 0 1-.18.32a.78.78 0 0 1-1.38-.52a.73.73 0 0 1 .67-.71a.72.72 0 0 1 .62.24a.73.73 0 0 1 .27.67m3.528 6.448a1.73 1.73 0 0 0-1.54.63c-.147.177-.26.38-.33.6c-.179 0-.459-.09-.809-.14h-.46a3 3 0 0 0-.44 0c-.37.05-.72.16-1 .23a.28.28 0 0 0-.332.275a.28.28 0 0 0 .333.275c.32.07.66.18 1 .24q.444.05.89 0l.779-.12c0 .07 0 .15.05.23c.084.203.214.384.38.53c.71.6 2.61.7 2.83-.91a1.66 1.66 0 0 0-1.35-1.84m-.9 2.28a.6.6 0 0 1-.19-.33a.69.69 0 0 1 .27-.66a.71.71 0 0 1 .62-.24a.73.73 0 0 1 .67.71a.78.78 0 0 1-1.37.52m-15.346.16a.27.27 0 0 0 .28-.22a.28.28 0 0 0-.27-.28c-.37-.07-.76-.19-1.18-.25h-1.01c-.4 0-.73.09-.94.12a1.8 1.8 0 0 0-.36-.72a1.74 1.74 0 0 0-1.549-.62a1.67 1.67 0 0 0-1.36 1.75c.23 1.62 2.12 1.51 2.83.92a1.5 1.5 0 0 0 .38-.54v-.13q.466.103.94.16q.26.015.52 0q.25.015.5 0c.459-.02.829-.12 1.219-.19m-3.93-.08a.7.7 0 0 1-.19.32a.78.78 0 0 1-1.369-.52a.74.74 0 0 1 1.29-.47a.76.76 0 0 1 .27.67"/><path fill="currentColor" d="M12.25 15.757a.27.27 0 0 0 .2 0c.68-.225 1.3-.597 1.82-1.09c.372-.354.638-.804.77-1.3q.128-.55.2-1.11c.06-.54.1-1.09.15-1.62q.06-.452.06-.909a2 2 0 0 0-.19-.7a1.52 1.52 0 0 0-1-.7a8.3 8.3 0 0 0-2.12 0c-.46 0-.94 0-1.41.06c-.22 0-.44 0-.65.09a3 3 0 0 0-.609.18a1.2 1.2 0 0 0-.47.37a1.8 1.8 0 0 0-.23.64c-.04.402-.04.808 0 1.21l.1 1.15c.027.41.09.82.19 1.22c.087.288.238.555.44.779q.416.44.89.82q.697.539 1.45 1a.27.27 0 0 0 .38-.08s.02.01.03-.01m-.2-.4q-.645-.461-1.23-1a5.7 5.7 0 0 1-.76-.79a1.3 1.3 0 0 1-.24-.54a9 9 0 0 1-.09-1.11v-1.849a1.1 1.1 0 0 1 .13-.5l.4-.11l.54-.07h1.39q.802-.105 1.61-.09c.25 0 .48 0 .59.21a.9.9 0 0 1 .1.43v.65c0 .54 0 1.08-.07 1.62c0 .34-.06.69-.12 1a2.24 2.24 0 0 1-.74 1.169c-.38.34-.816.61-1.29.8a.31.31 0 0 0-.22.18"/>
  </symbol>
  <symbol id="streamline-menu" viewBox="0 0 24 24">
    <path fill="currentColor" d="M22.689 1.501H20.88c-3.987.14-14.111.52-14.34.52a.38.38 0 0 0-.31.08a3.54 3.54 0 0 0-.6 2.219a6.5 6.5 0 0 0 .23 1.768a1.1 1.1 0 0 0 .35.55q.207.11.44.15q.414.106.839.16l2.308.11c1.61 0 4.897.09 7.745.08s5.297-.07 5.317-.08a1.24 1.24 0 0 0 .69-.63a5 5 0 0 0 .449-2.218c0-1.19-.47-2.409-1.31-2.709m-.06 4.108a1.7 1.7 0 0 1-.16.33l-12.662.25H7.52l-.88-.17a2 2 0 0 1-.1-.23a5.7 5.7 0 0 1-.22-1.87a2.5 2.5 0 0 1 .27-1.238c1.09 0 6.826 0 11.113-.05h4.727c.267.314.407.717.39 1.129a4.7 4.7 0 0 1-.19 1.849"/><path fill="currentColor" d="M22.31 2.58a.3.3 0 0 0 .12.06a.24.24 0 0 0-.12-.06m-1.99 6.826h-1.649l-12.991.43a.35.35 0 0 0-.35.35a.36.36 0 0 0 .36.35l14.19-.09c.38.15.46.67.52 1.219a4.9 4.9 0 0 1-.18 1.829q-.063.18-.17.34l-12.651.24H5.1l-.85-.14c0-.05-.1-.14-.13-.23a6 6 0 0 1-.22-1.87c-.03-.489.104-.974.38-1.378a.3.3 0 0 0 0-.43a.31.31 0 0 0-.44 0a3.4 3.4 0 0 0-.629 2.208c.01.604.103 1.202.28 1.78c.056.217.178.413.35.559q.209.106.44.15q.414.105.84.16l2.318.13c1.369 0 3.997.08 6.446.09c3.367 0 6.575-.09 6.615-.1a1.2 1.2 0 0 0 .68-.62c.32-.701.474-1.468.45-2.238c-.02-1.28-.48-2.439-1.31-2.739m-3.248 7.486h-1.808c-3.998.13-14.111.52-14.341.48a.34.34 0 0 0-.31.09a3.43 3.43 0 0 0-.6 2.258a6.5 6.5 0 0 0 .23 1.769c.066.202.187.382.35.52q.211.095.44.14q.413.115.84.159l2.308.11c1.609 0 4.887.09 7.745.08s5.286-.07 5.316-.08c.301-.115.548-.34.69-.63c.319-.698.473-1.46.45-2.228c-.02-1.2-.48-2.369-1.31-2.668m-.07 4.117a1.7 1.7 0 0 1-.16.33l-12.661.25H1.892l-.88-.17a1.4 1.4 0 0 1-.11-.24a6.3 6.3 0 0 1-.21-1.87c.004-.432.114-.858.32-1.238h15.84c.264.316.402.718.39 1.129a4.9 4.9 0 0 1-.24 1.809"/><path fill="currentColor" d="M16.693 18.01q.052.046.12.06a.3.3 0 0 0-.12-.06"/>
  </symbol>
  <symbol id="streamline-chevron-down" viewBox="0 0 24 24">
    <g fill="currentColor" fill-rule="evenodd" clip-rule="evenodd"><path d="M18.169 9.432A43.6 43.6 0 0 0 6.56 8.906C2.459 9.322.649 10.03.259 13.462c-.686 6.076-.364 9.404 5.411 9.568c4.33.355 8.683.315 13.005-.12c3.996-.618 5.403-1.666 5.322-6.034c-.106-4.836-1.621-6.683-5.828-7.444m4.769 7.452c-.022 5.201-1.824 5.305-17.23 4.826c-3.701-.112-4.099-1.527-4.275-3.13c-.164-1.462-.186-6.125.879-7.145c1.968-1.909 11.004-1.74 15.58-1.237c3.893.428 5.069 2.415 5.046 6.686"/><path d="M6.19 12.736c.385.174.802.265 1.224.268c.413.003 1.2-.055 1.508-.39a.43.43 0 0 0 0-.583c-.516-.56-2.113-.468-2.724-.136c-.572.31-.392.667-.007.84zm-2.21 3.1c.384.175.8.267 1.223.27c.415.003 1.21-.06 1.529-.38a.426.426 0 0 0 0-.603c-.504-.504-1.954-.44-2.564-.21c-.758.286-.572.748-.188.923m7.825-2.826c.405.009 1.18-.04 1.499-.34a.427.427 0 0 0 .019-.602c-.306-.327-1.093-.407-1.503-.407c-.404 0-1.167.072-1.461.407a.41.41 0 0 0 .004.544c.293.324 1.044.392 1.442.4zm-2.21 3.1c.404.007 1.18-.038 1.499-.338a.43.43 0 0 0 .019-.604c-.306-.326-1.093-.406-1.503-.406c-.404 0-1.167.072-1.461.407a.41.41 0 0 0 .003.543c.294.324 1.045.39 1.443.398m9.223.243c.403.008 1.167-.037 1.478-.348a.427.427 0 0 0 .02-.582c-.295-.341-1.073-.418-1.482-.418c-.406 0-1.172.075-1.47.405a.405.405 0 0 0 .005.55c.299.316 1.049.386 1.449.393m-2.626-3.083c.392.03 1.142.015 1.467-.26a.43.43 0 0 0 .05-.602c-.28-.33-1.03-.461-1.43-.484c-.393-.021-1.133.02-1.441.32a.406.406 0 0 0-.026.555c.273.32.992.442 1.38.47m-2.212 3.029c.393.03 1.144.015 1.469-.26a.43.43 0 0 0 .05-.602c-.28-.33-1.03-.462-1.43-.484c-.393-.022-1.133.02-1.442.32a.405.405 0 0 0-.028.554c.273.322.994.442 1.382.472zm-6.581 3.114c3.002.34 6.032.349 9.036.028a.428.428 0 0 0 0-.855a38 38 0 0 0-9.047.016a.406.406 0 0 0 .01.81M8.439 5.452a33 33 0 0 0 3.734-3.155c3.756 3.266 3.726 3.427 4.104 3.06a.425.425 0 0 0 0-.605A26.6 26.6 0 0 0 12.57.892c-.72-.602-1.339.428-4.68 3.958a.408.408 0 0 0 .549.602"/></g>
  </symbol>
  <symbol id="streamline-project-ruby" viewBox="0 0 24 24">
    <g fill="currentColor" fill-rule="evenodd" clip-rule="evenodd"><path d="M15.706 5.61a4 4 0 0 1-.66-.05c.06-.22.15-.48.24-.76c.43-1.42.64-2.91-.5-3.87a.27.27 0 0 0-.37.39c1.18 1.28-.27 3.05-.42 4.39s3.07.9 4.18.39l1.69-.71a.35.35 0 0 0-.17-.66c-2.12.77-2.21.92-3.99.88"/><path d="M15.876.06C14.496 0 15.126 0 5.995 0a.325.325 0 0 0 0 .65c8.511.07 8.761 0 9.821.16s3.75 2.65 4.43 3.7c.144.174.231.387.25.61c-.1 1.54-.74 6.002-1 7.082s-.45 1.8-.63 2.71c-.07.36-.52 4.6-1.65 5.15c-1.59.771-3.37.26-5 .4a46 46 0 0 1-4.58.211c-5.402-.19-5.152-.11-6.612-.81c1.33-1.81 2.22-6.001 2.69-8.451c.53-2.7.35-5.451.56-8.172c0-.47.47-3-.3-2.62c-.31.14-.21.6-.21.81c0 1.35-.33 6.591-.41 7.461a36.7 36.7 0 0 1-2.48 9.512c-.16.3-.35.59-.53.87a2 2 0 0 0-.34.57a.76.76 0 0 0 .43.76a7.1 7.1 0 0 0 2 .76c3.271.323 6.564.366 9.842.13c1.69-.15 3.57.39 5.41-.51c1.68-.82 2.06-5.25 2.18-5.88c.17-.911.41-1.801.59-2.701c.181-.9.791-5.501.881-7.241c.08-1.51-4.07-4.991-5.46-5.101"/><path d="M23.087 5.81c-.1 1.541-.94 7.712-1.16 8.752s-.45 1.8-.63 2.71c-.07.36-.52 4.601-1.65 5.151c-1.59.76-3.37.26-5 .4c-1.001.09-3.241.25-4.582.21c-5.15-.19-5.14 0-6.4-.57c-.73-.29-.91.41-.46.72a4 4 0 0 0 1.69.54a57 57 0 0 0 9.831.12c1.69-.14 3.57.4 5.41-.5c1.681-.82 2.071-5.25 2.181-5.88c.17-.91.41-1.8.59-2.7S23.917 7.68 23.997 6c.05-.94-.8-1.08-.91-.19M8.105 11.601c1.44-1.25 1.79-1.2 1.6-1.53a.26.26 0 0 0-.35-.07c-1 .49-3.67 1.89-3.32 2.93c.23.67 3.14 2.68 3.34 2.68a.3.3 0 0 0 .29-.29c0-.21-.21-.3-.37-.44c-.55-.48-1.82-1.66-2.12-2c0 0-.1-.07-.15-.12q.495-.62 1.08-1.16"/><path d="M12.456 15.231a.29.29 0 0 0 .29.29a17.3 17.3 0 0 0 2.93-2.13c.29-.32.58-.6.39-1c-.5-1-2.27-2-3.3-2.46a.26.26 0 0 0-.26.44a14.2 14.2 0 0 1 2.59 2.29c-.33.26-.62.73-2.27 2.15c-.16.12-.37.19-.37.42"/></g>
  </symbol>
  <symbol id="streamline-project-cfml" viewBox="0 0 24 24">
    <g fill="currentColor" fill-rule="evenodd" clip-rule="evenodd"><path d="M5.345 14.401c.19.29.51.16.51-.08c0-.06-.11-.06 0-1.35v-.48a1.2 1.2 0 0 0 .84-.07q.063.937.23 1.86a.27.27 0 0 0 .46-.1a6 6 0 0 0 .1-1.25a7.4 7.4 0 0 0-.08-1.63a3.6 3.6 0 0 1-.19-1a.213.213 0 0 0-.39-.17a5 5 0 0 0-.15 1.7c-.93-.28-.82.09-.82-.31a11 11 0 0 0-.14-1.41c-.12-.12-.26-.12-.37.1q-.16.631-.21 1.28a5.1 5.1 0 0 0 0 2.26q.064.338.21.65m5.31-4.11c0-.4-2.42-.25-2.53-.17s-.14.13-.12.2a.2.2 0 0 0 0 .12c.365.167.76.255 1.16.26v.59q-.146 1.142-.08 2.29c0 .14-.06.68.13.84a.23.23 0 0 0 .34 0c.12-.11.15-.74.16-.79a5.8 5.8 0 0 0 .11-2.35c0-.1 0-.51-.07-.65c.19 0 .5 0 .62-.07s.29-.2.28-.27m3.591 3.99q.093-.636.09-1.28c.118-.858.142-1.726.07-2.59a.51.51 0 0 0-.65-.33a2.07 2.07 0 0 0-.91.72a1.6 1.6 0 0 0-.3-.6a.7.7 0 0 0-1.17.19c-.153.49-.237.998-.25 1.51v2c.11.8.71.38.47.1c-.025-.964.066-1.927.27-2.87c.24-.87.23.14.28.37s.08.79.54.79s.35-.68 1-1.3q.062 1 0 2q-.042.66 0 1.32a.28.28 0 0 0 .56-.03m1.21-3.989c0 .11-.22 2.21-.23 2.32c-.006.428.045.855.15 1.27c.25.76.89.78 1.67.6a2.7 2.7 0 0 0 .83-.17c.16-.16.08-.43-.29-.47q-.598.075-1.2.06c-.32-.05-.25 0-.49-3.24q.015-.135 0-.27a.23.23 0 1 0-.44-.1m.25-4.682a4 4 0 0 1-.66-.05c.06-.22.15-.48.24-.76c.43-1.42.64-2.91-.5-3.87a.27.27 0 0 0-.37.39c1.18 1.28-.27 3.05-.42 4.39s3.07.9 4.18.39l1.69-.71a.35.35 0 0 0-.17-.66c-2.12.77-2.21.92-3.99.88"/><path d="M15.876.06C14.496 0 15.126 0 5.995 0a.325.325 0 1 0 0 .65c8.511.07 8.761 0 9.821.16s3.75 2.65 4.43 3.7c.144.174.231.387.25.61c-.1 1.54-.74 6.002-1 7.082s-.45 1.8-.63 2.71c-.07.36-.52 4.6-1.65 5.15c-1.59.771-3.37.26-5 .4a46 46 0 0 1-4.58.211c-5.402-.19-5.152-.11-6.612-.81c1.33-1.81 2.22-6.001 2.69-8.451c.53-2.7.35-5.451.56-8.172c0-.47.47-3-.3-2.62c-.31.14-.21.6-.21.81c0 1.35-.33 6.591-.41 7.461a36.7 36.7 0 0 1-2.48 9.512c-.16.3-.35.59-.53.87a2 2 0 0 0-.34.57a.76.76 0 0 0 .43.76a7.1 7.1 0 0 0 2 .76c3.271.323 6.564.366 9.842.13c1.69-.15 3.57.39 5.41-.51c1.68-.82 2.06-5.25 2.18-5.88c.17-.911.41-1.801.59-2.701c.181-.9.791-5.501.881-7.241c.08-1.51-4.07-4.991-5.46-5.101"/><path d="M23.087 5.81c-.1 1.541-.94 7.712-1.16 8.752s-.45 1.8-.63 2.71c-.07.36-.52 4.601-1.65 5.151c-1.59.76-3.37.26-5 .4c-1.001.09-3.241.25-4.582.21c-5.15-.19-5.14 0-6.4-.57c-.73-.29-.91.41-.46.72a4 4 0 0 0 1.69.54a57 57 0 0 0 9.831.12c1.69-.14 3.57.4 5.41-.5c1.681-.82 2.071-5.25 2.181-5.88c.17-.91.41-1.8.59-2.7S23.917 7.68 23.997 6c.05-.94-.8-1.08-.91-.19"/></g>
  </symbol>
  <symbol id="streamline-project-javascript" viewBox="0 0 24 24">
    <g fill="currentColor" fill-rule="evenodd" clip-rule="evenodd"><path d="M8.315 12.901a.27.27 0 0 0-.53 0a1.52 1.52 0 0 0 1.15 1.57c.9.17 1.39-1.05 1.4-2a16 16 0 0 0-.14-1.84c.54 0 .73 0 .82-.19s0-.29-.32-.37a6 6 0 0 0-.85-.1a3.5 3.5 0 0 0-1 .15l-.71.22c-.24.11-.23.28-.19.36c.19.4 1.53 0 1.64 0a5 5 0 0 1 0 1.71c-.24 2.11-1.23 1.09-1.27.49m5.341-2.39s.08 0 .08.08a.19.19 0 0 0 .15.23c.24 0 .36-.39 0-.63a1.59 1.59 0 0 0-1.54.06a.93.93 0 0 0-.35 1.41c.38.52 1.5.81 1.53 1.18s-.09.76-.33.88a1 1 0 0 1-1-.07a.21.21 0 0 0-.3 0c-.59.5 2.31 1.61 2.32-.82c0-.93-1.33-1.2-1.66-1.59s.67-.89 1.1-.73m2.05-4.901a4 4 0 0 1-.66-.05c.06-.22.15-.48.24-.76c.43-1.42.64-2.91-.5-3.87a.27.27 0 0 0-.37.39c1.18 1.28-.27 3.05-.42 4.39s3.07.9 4.18.39l1.69-.71a.35.35 0 0 0-.17-.66c-2.12.77-2.21.92-3.99.88"/><path d="M15.876.06C14.496 0 15.126 0 5.995 0a.325.325 0 0 0 0 .65c8.511.07 8.761 0 9.821.16s3.75 2.65 4.43 3.7c.144.174.231.387.25.61c-.1 1.54-.74 6.002-1 7.082s-.45 1.8-.63 2.71c-.07.36-.52 4.6-1.65 5.15c-1.59.771-3.37.26-5 .4a46 46 0 0 1-4.58.211c-5.402-.19-5.152-.11-6.612-.81c1.33-1.81 2.22-6.001 2.69-8.451c.53-2.7.35-5.451.56-8.172c0-.47.47-3-.3-2.62c-.31.14-.21.6-.21.81c0 1.35-.33 6.591-.41 7.461a36.7 36.7 0 0 1-2.48 9.512c-.16.3-.35.59-.53.87a2 2 0 0 0-.34.57a.76.76 0 0 0 .43.76a7.1 7.1 0 0 0 2 .76c3.271.323 6.564.366 9.842.13c1.69-.15 3.57.39 5.41-.51c1.68-.82 2.06-5.25 2.18-5.88c.17-.911.41-1.801.59-2.701c.181-.9.791-5.501.881-7.241c.08-1.51-4.07-4.991-5.46-5.101"/><path d="M23.087 5.81c-.1 1.541-.94 7.712-1.16 8.752s-.45 1.8-.63 2.71c-.07.36-.52 4.601-1.65 5.151c-1.59.76-3.37.26-5 .4c-1.001.09-3.241.25-4.582.21c-5.15-.19-5.14 0-6.4-.57c-.73-.29-.91.41-.46.72a4 4 0 0 0 1.69.54a57 57 0 0 0 9.831.12c1.69-.14 3.57.4 5.41-.5c1.681-.82 2.071-5.25 2.181-5.88c.17-.91.41-1.8.59-2.7S23.917 7.68 23.997 6c.05-.94-.8-1.08-.91-.19"/></g>
  </symbol>
  <symbol id="streamline-project-python" viewBox="0 0 24 24">
    <path fill="currentColor" fill-rule="evenodd" d="M24 14.3a11.5 11.5 0 0 0-1.26-2a3.16 3.16 0 0 0-1.422-1a1.43 1.43 0 0 0-.83.05c-.39.12-.86.35-1.28.5s-.611-.06-.771-.27c-.32-.441-.57-1.001-.85-1.371a4.1 4.1 0 0 0-1.592-1.311a1.48 1.48 0 0 0-1.26.12a1.53 1.53 0 0 0-.73.88a2.16 2.16 0 0 0 .08 1.481c.165.373.373.726.62 1.05a22 22 0 0 1 1.48 1.922c.13.21.27.42.39.64a5.6 5.6 0 0 0-1.2-.43a1.5 1.5 0 0 0-.82.08a1.09 1.09 0 0 0-.65.87c-.02.605.144 1.202.47 1.712c.302.445.707.812 1.18 1.07c.94.52 2.061.55 3.172 1a.32.32 0 1 0 .27-.57c-.91-.46-1.851-.59-2.671-1a2.66 2.66 0 0 1-1.211-1.07a2 2 0 0 1-.23-.621a2.4 2.4 0 0 1 0-.36c0-.06 0-.13.06-.15a1 1 0 0 1 .69.15c.34.15.7.34 1 .46c.234.089.481.136.731.14a.59.59 0 0 0 .59-.56q0-.34-.07-.67a2.8 2.8 0 0 0-.24-.631c-.13-.25-.28-.49-.41-.73a22 22 0 0 0-1.55-2.002a4 4 0 0 1-.481-.8a1 1 0 0 1-.08-.53a.38.38 0 0 1 .18-.29c.18-.11.37 0 .54.13q.44.34.78.78c.29.36.571.9.901 1.33c.174.23.383.43.62.591a1.18 1.18 0 0 0 1.001.09q.676-.243 1.32-.56c.231-.1.421-.23.561-.19c.413.119.784.351 1.07.67c.474.55.89 1.147 1.242 1.781a.37.37 0 0 0 .63-.37zM6.13 8.257a.31.31 0 0 0 .1-.44a.33.33 0 0 0-.45-.1l-1.061.7c-.23.17-.65.37-1 .61q-.278.227-.461.531a.8.8 0 0 0 0 .68c.152.3.359.568.61.791q.323.253.69.43c.49.24 1.001.39 1.512.61a.37.37 0 0 0 .37-.63c-.37-.27-.78-.5-1.16-.76a3 3 0 0 1-.581-.53a1.4 1.4 0 0 1-.17-.13l.84-.901zm2.741-1.641c-.33.64-.7 1.251-1 1.901q-.2.416-.35.851c-.11.28-.2.58-.29.87c-.2.7-.341 1.411-.481 2.112a.37.37 0 0 0 .7.22c.28-.67.61-1.31.9-2.001c.191-.44.381-.89.531-1.351c.26-.79.41-1.581.61-2.381a.34.34 0 0 0-.19-.42a.33.33 0 0 0-.43.2m2.372 3.461l-.49.57l-.871.871a.37.37 0 0 0-.1.51a.36.36 0 0 0 .5.11l1.13-.75l.661-.5q.335-.3.6-.66c.163-.208.273-.452.32-.71a.65.65 0 0 0-.21-.501a3.2 3.2 0 0 0-.53-.41a10 10 0 0 0-1-.53a10 10 0 0 0-1.001-.401a.33.33 0 0 0-.43.16a.33.33 0 0 0 .16.43q.42.264.8.58q.377.314.71.671c.13.06.31-.08-.25.56m1.682-7.584c.3.06.75-.81.75-.83a.6.6 0 0 0 .07-.26q.015-.142 0-.28c-.11-1.101-.4-1.001-.5-1.061s-.33 0-.64.91a.8.8 0 0 0-.08.24a1 1 0 0 0 0 .26s.11.97.4 1.02m4.412 1.452q.15-.094.27-.22q.123-.12.22-.26c.73-.931.67-1.001.54-1.211s-.37-.24-1.32.35a3 3 0 0 0-.3.22a3 3 0 0 0-.24.28c-.68 1-.48 1.181-.4 1.261s.23.26 1.23-.42m.2 2.541c.06.38 1.441.36 1.471.36q.3-.027.59-.11c1.201-.3 1.251-.39 1.251-.62s-.19-.49-1.36-.55a2 2 0 0 0-.42 0q-.204.03-.401.09c-1.21.48-1.15.7-1.13.83" clip-rule="evenodd"/><path fill="currentColor" d="M4.739 18.313a.32.32 0 0 0-.31.33c0 1.551 0 1.671.43 2.001c.29.237.634.402 1 .48a2.53 2.53 0 0 0 1.531 2.442c.429.201.89.327 1.361.37c.463.043.93.009 1.38-.1a2.87 2.87 0 0 0 2.352-2.17a.37.37 0 1 0-.71-.181a2.07 2.07 0 0 1-1.851 1.21a4.6 4.6 0 0 1-1 0a4 4 0 0 1-1.001-.23a1.84 1.84 0 0 1-1.281-1.2l.28.06c1.046.193 2.11.26 3.172.2a7 7 0 0 0 2.131-.5l.82-.5q.15-.116.27-.26q.135-.151.24-.32a1.32 1.32 0 0 0 0-1.692a1.6 1.6 0 0 0-.47-.35a7.3 7.3 0 0 0-2.35-.27l-2.302.19c-.86.1-1.721.26-2.592.37zm.59 1l.22-.42l3.002-.15h2.261a6 6 0 0 1 1.551.15a.65.65 0 0 1 .3.15a1 1 0 0 1-.11.22l-.22.26l-.55.331c-.714.32-1.48.506-2.261.55a14 14 0 0 1-2.532-.01a3.23 3.23 0 0 1-1.59-.37c-.161-.13-.201-.35-.07-.69zm7.984-2.191c.18-1 .06-1-.11-1.1s-.4.09-1 .95a1 1 0 0 1-.07.13c0 .32 1 .65 1.15.32zm2.242-10.646a4.94 4.94 0 0 0-1.23-2a7.6 7.6 0 0 0-1.842-1.342a8.8 8.8 0 0 0-7.064-.39A8.37 8.37 0 0 0 .266 7.707a5.9 5.9 0 0 0 0 3.502a8.5 8.5 0 0 0 1.641 3.002c.45.53 1 1 1.461 1.48q.295.295.54.631c.267.353.492.736.67 1.14c0 .08.06.17.1.26c.08.361.731.23.741-.05s-.11-.33-.18-.49a7 7 0 0 0-.69-1.31a7 7 0 0 0-.56-.77c-.43-.511-.931-1.001-1.341-1.512a7.4 7.4 0 0 1-1.301-2.671c-.241-.925-.2-1.9.12-2.802a7.25 7.25 0 0 1 4.402-4.232a8 8 0 0 1 6.204.13c.61.297 1.176.677 1.681 1.13c.488.43.868.968 1.11 1.571a.37.37 0 0 0 .588.16a.36.36 0 0 0 .103-.4"/>
  </symbol>
  <symbol id="streamline-project-dotnet" viewBox="0 0 24 24">
    <path fill="currentColor" fill-rule="evenodd" d="M14.812 7.704a.35.35 0 0 0-.469-.09q-.587.226-1.146.52a3.9 3.9 0 0 0-.907.727a.74.74 0 0 0-.13.319a.77.77 0 0 0 .26.658q.376.275.807.458l.668.23a.379.379 0 0 0 .24-.718l-.649-.31s.17-.06.09-.109l1.146-1.226a.34.34 0 0 0 .09-.459m2.522-1.744a.32.32 0 0 0-.429.17c-.359.558-.747 1.066-1.076 1.644c-.08.15-.14.31-.21.459c-.11.299-.229.588-.309.897c-.18.688-.279 1.385-.468 2.073a.39.39 0 0 0 .21.489a.37.37 0 0 0 .487-.21q.4-.976.688-1.993c.11-.28.459-.558.568-.837l.708-2.293a.33.33 0 0 0-.17-.399m1.905 2.303a7.5 7.5 0 0 0-1.346-.469a.331.331 0 0 0-.339.568l.598.509c.11.1.21.219.31.329l-.18.209l-.608.518a.38.38 0 0 0-.11.519a.39.39 0 0 0 .518.12l.718-.29q.263-.097.498-.25q.183-.122.34-.278q.127-.165.229-.349a.63.63 0 0 0-.08-.638a2 2 0 0 0-.548-.498" clip-rule="evenodd"/><path fill="currentColor" fill-rule="evenodd" d="M23.524 8.163a2.72 2.72 0 0 0 0-1.804a3.14 3.14 0 0 0-1.226-1.426a2.2 2.2 0 0 0-.887-.289a6 6 0 0 0-1.127.07a3 3 0 0 0-.996.28s-.08.069-.13.089a3.6 3.6 0 0 0-.578-1.445a3.67 3.67 0 0 0-2.751-1.585a4.1 4.1 0 0 0-1.725.289a6.3 6.3 0 0 0-1.993 1.365a4.6 4.6 0 0 0-1.236 2.233q-.023.316 0 .628A5.1 5.1 0 0 0 8.89 8.771A2.6 2.6 0 0 0 9 10.964q.126.258.299.488q.158.24.358.449q.36.366.778.668q.412.3.867.528a8 8 0 0 0 1.834.658c.935.19 1.887.278 2.841.26a16 16 0 0 0 2.472-.18a12.7 12.7 0 0 0 2.412-.648a8.7 8.7 0 0 0 1.376-.658q.47-.28.857-.668a3.6 3.6 0 0 0 .857-1.744a2.5 2.5 0 0 0-.428-1.954m-.449 1.784a2.6 2.6 0 0 1-.687 1.246a3 3 0 0 1-.688.479a6.6 6.6 0 0 1-1.236.498c-.724.23-1.468.387-2.223.469q-1.143.133-2.293.12a15.5 15.5 0 0 1-2.173-.16a7.5 7.5 0 0 1-1.993-.568a7 7 0 0 1-.738-.39a4.7 4.7 0 0 1-.668-.498l-.518-.647a1.82 1.82 0 0 1 0-1.805c.252-.476.59-.902.997-1.256c.07.348.191.684.359.997a.33.33 0 0 0 .608-.056a.34.34 0 0 0-.02-.253a2.66 2.66 0 0 1-.09-1.934c.208-.63.6-1.181 1.126-1.585c.427-.37.9-.685 1.406-.937a3.26 3.26 0 0 1 1.515-.358a2.52 2.52 0 0 1 1.993.907a3 3 0 0 1 .628 2.223a.36.36 0 0 0 .31.418a.39.39 0 0 0 .438-.309q.054-.316.05-.638q.18-.117.379-.2c.235-.052.477-.069.717-.049c.26 0 .519 0 .788.08c.184.025.36.097.508.21c.334.213.6.517.768.876c.174.345.23.737.16 1.117l-.11.428a1.3 1.3 0 0 1-.38.39a6 6 0 0 1-.567.318a.37.37 0 0 0-.007.69c.09.038.193.041.286.008q.448-.146.867-.359c.185-.11.353-.249.498-.409c.075.309.072.63-.01.937M3.658 12.609h.997c.319 0 .448 0 .677-.05c.916-.08 1.836-.08 2.752 0a.37.37 0 0 0 .322-.532a.38.38 0 0 0-.362-.216l-3.38-.09c-.338 0-.687 0-1.056.05s-.478.06-.718.1q-.504.005-.996.11a.478.478 0 0 0 0 .757c.478.28 1.275-.15 1.764-.13" clip-rule="evenodd"/><path fill="currentColor" fill-rule="evenodd" d="M18.839 18.001a28 28 0 0 0-.389-3.618a.36.36 0 0 0-.458-.24a.38.38 0 0 0-.26.47a27 27 0 0 1 .24 3.388a8 8 0 0 1-.14 2.074s0 .06-.05.08s-.289.05-.448.089a45 45 0 0 1-7.656.469c-2.601 0-5.203-.08-6.848-.25a4.5 4.5 0 0 1-1.345-.219a.64.64 0 0 1-.15-.399a8 8 0 0 1 0-.867c0-.419 0-1.346-.07-2.432c-.07-1.735-.219-5.682-.289-5.652A1.585 1.585 0 0 1 2.023 9.16c1.137-.48 2.821-.33 3.987-.47l1.794-.08a.32.32 0 0 0 .36-.299a.34.34 0 0 0-.3-.358H5.931c-1.276.09-3.05-.09-4.267.368A2.45 2.45 0 0 0 .03 11.024l.11 7.974c-.042.5-.009 1.005.099 1.495c.085.29.255.547.488.738c.74.36 1.55.55 2.373.558a74 74 0 0 0 8.393.08a31.7 31.7 0 0 0 6.32-.728a1.33 1.33 0 0 0 .886-.618a8.2 8.2 0 0 0 .14-2.522" clip-rule="evenodd"/><path fill="currentColor" d="M3.09 9.877a.588.588 0 1 0-.07 1.147c.678.07.997-1.077.07-1.147m2.631-.039a.594.594 0 0 0-.08 1.186c.688 0 .997-1.107.08-1.186"/>
  </symbol>
</svg>
